<?xml version="1.0" encoding="UTF-8" standalone="no"?>
<!-- Created with Inkscape (http://www.inkscape.org/) -->

<svg
   xmlns:dc="http://purl.org/dc/elements/1.1/"
   xmlns:cc="http://creativecommons.org/ns#"
   xmlns:rdf="http://www.w3.org/1999/02/22-rdf-syntax-ns#"
   xmlns:svg="http://www.w3.org/2000/svg"
   xmlns="http://www.w3.org/2000/svg"
   xmlns:sodipodi="http://sodipodi.sourceforge.net/DTD/sodipodi-0.dtd"
   xmlns:inkscape="http://www.inkscape.org/namespaces/inkscape"
   width="210mm"
   height="297mm"
   viewBox="0 0 210 297"
   version="1.1"
   id="svg8"
   inkscape:version="0.92.3 (2405546, 2018-03-11)"
   sodipodi:docname="drawing-5.svg">
  <defs
     id="defs2">
    <inkscape:path-effect
       effect="bspline"
       id="path-effect1020"
       is_visible="true"
       weight="33.333333"
       steps="2"
       helper_size="0"
       apply_no_weight="true"
       apply_with_weight="true"
       only_selected="false" />
    <inkscape:path-effect
       effect="bspline"
       id="path-effect1012"
       is_visible="true"
       weight="33.333333"
       steps="2"
       helper_size="0"
       apply_no_weight="true"
       apply_with_weight="true"
       only_selected="false" />
    <inkscape:path-effect
       effect="bspline"
       id="path-effect1008"
       is_visible="true"
       weight="33.333333"
       steps="2"
       helper_size="0"
       apply_no_weight="true"
       apply_with_weight="true"
       only_selected="false" />
    <inkscape:path-effect
       effect="bspline"
       id="path-effect1004"
       is_visible="true"
       weight="33.333333"
       steps="2"
       helper_size="0"
       apply_no_weight="true"
       apply_with_weight="true"
       only_selected="false" />
    <inkscape:path-effect
       effect="bspline"
       id="path-effect987"
       is_visible="true"
       weight="33.333333"
       steps="2"
       helper_size="0"
       apply_no_weight="true"
       apply_with_weight="true"
       only_selected="false" />
    <inkscape:path-effect
       effect="bspline"
       id="path-effect983"
       is_visible="true"
       weight="33.333333"
       steps="2"
       helper_size="0"
       apply_no_weight="true"
       apply_with_weight="true"
       only_selected="false" />
    <inkscape:path-effect
       effect="bspline"
       id="path-effect949"
       is_visible="true"
       weight="33.333333"
       steps="2"
       helper_size="0"
       apply_no_weight="true"
       apply_with_weight="true"
       only_selected="false" />
    <clipPath
       clipPathUnits="userSpaceOnUse"
       id="clipPath1034">
      <rect
         style="fill:#ffffff;fill-opacity:1;stroke-width:1.26499999;stroke-miterlimit:4;stroke-dasharray:none"
         id="rect1036"
         width="195.69518"
         height="159.59607"
         x="3.7999067"
         y="138.92389" />
    </clipPath>
    <clipPath
       clipPathUnits="userSpaceOnUse"
       id="clipPath1038">
      <rect
         style="fill:#ffffff;fill-opacity:1;stroke-width:4.78110218;stroke-miterlimit:4;stroke-dasharray:none"
         id="rect1040"
         width="739.63531"
         height="603.19775"
         x="14.361853"
         y="525.06665" />
    </clipPath>
    <clipPath
       clipPathUnits="userSpaceOnUse"
       id="clipPath1042">
      <rect
         style="fill:#ffffff;fill-opacity:1;stroke-width:1.26499999;stroke-miterlimit:4;stroke-dasharray:none"
         id="rect1044"
         width="195.69518"
         height="159.59607"
         x="3.7999067"
         y="138.92389" />
    </clipPath>
    <clipPath
       clipPathUnits="userSpaceOnUse"
       id="clipPath1046">
      <rect
         style="fill:#ffffff;fill-opacity:1;stroke-width:4.78110218;stroke-miterlimit:4;stroke-dasharray:none"
         id="rect1048"
         width="739.63531"
         height="603.19775"
         x="14.361853"
         y="525.06665" />
    </clipPath>
    <clipPath
       clipPathUnits="userSpaceOnUse"
       id="clipPath1050">
      <rect
         style="fill:#ffffff;fill-opacity:1;stroke-width:1.26499999;stroke-miterlimit:4;stroke-dasharray:none"
         id="rect1052"
         width="195.69518"
         height="159.59607"
         x="0.62490672"
         y="138.92389" />
    </clipPath>
    <clipPath
       clipPathUnits="userSpaceOnUse"
       id="clipPath1054">
      <rect
         style="fill:#ffffff;fill-opacity:1;stroke-width:1.26499999;stroke-miterlimit:4;stroke-dasharray:none"
         id="rect1056"
         width="195.69518"
         height="159.59607"
         x="3.7999067"
         y="138.92389" />
    </clipPath>
    <clipPath
       clipPathUnits="userSpaceOnUse"
       id="clipPath1058">
      <rect
         style="fill:#ffffff;fill-opacity:1;stroke-width:1.26499999;stroke-miterlimit:4;stroke-dasharray:none"
         id="rect1060"
         width="195.69518"
         height="159.59607"
         x="3.7999067"
         y="138.92389" />
    </clipPath>
    <clipPath
       clipPathUnits="userSpaceOnUse"
       id="clipPath1062">
      <rect
         style="fill:#ffffff;fill-opacity:1;stroke-width:1.26499999;stroke-miterlimit:4;stroke-dasharray:none"
         id="rect1064"
         width="195.69518"
         height="159.59607"
         x="3.7999067"
         y="138.92389" />
    </clipPath>
    <clipPath
       clipPathUnits="userSpaceOnUse"
       id="clipPath1066">
      <rect
         style="fill:#ffffff;fill-opacity:1;stroke-width:4.78110218;stroke-miterlimit:4;stroke-dasharray:none"
         id="rect1068"
         width="739.63531"
         height="603.19775"
         x="14.361853"
         y="525.06665" />
    </clipPath>
  </defs>
  <sodipodi:namedview
     id="base"
     pagecolor="#ffffff"
     bordercolor="#666666"
     borderopacity="1.0"
     inkscape:pageopacity="0.0"
     inkscape:pageshadow="2"
     inkscape:zoom="0.69628907"
     inkscape:cx="441.87649"
     inkscape:cy="271.14099"
     inkscape:document-units="mm"
     inkscape:current-layer="layer1"
     showgrid="false"
     inkscape:window-width="1920"
     inkscape:window-height="1001"
     inkscape:window-x="-9"
     inkscape:window-y="-9"
     inkscape:window-maximized="1" />
  <metadata
     id="metadata5">
    <rdf:RDF>
      <cc:Work
         rdf:about="">
        <dc:format>image/svg+xml</dc:format>
        <dc:type
           rdf:resource="http://purl.org/dc/dcmitype/StillImage" />
        <dc:title></dc:title>
      </cc:Work>
    </rdf:RDF>
  </metadata>
  <g
     inkscape:label="Layer 1"
     inkscape:groupmode="layer"
     id="layer1">
    <path
       style="fill:#8a0003;fill-opacity:1;stroke-width:6.7614994;stroke-miterlimit:4;stroke-dasharray:none"
       d="m 192.76895,786.75322 c -3.11127,-1.91627 -10.78338,-5.28937 -12.72792,-5.29485 -2.62901,-0.007 -3.65335,-0.6785 -7.07107,-5.6933 -2.5279,-3.7092 -5.3033,-9.19188 -5.3033,-10.45525 0,-1.26337 4.962,-9.7168 9.2982,-15.76056 4.33619,-6.04374 11.92092,-16.62885 15.12646,-21.36182 3.20554,-4.73298 9.38849,-14.08444 14.60414,-20.78102 9.42301,-12.0986 8.63746,-10.16412 7.28598,-21.21321 -0.7907,-6.46439 5.75657,-35.20935 21.01008,-59.65235 13.84242,-22.18179 34.20999,-43.37886 43.42066,-49.71634 21.64736,-14.89465 40.28027,-19.01189 61.55001,-16.04806 11.93673,1.66333 54.27902,12.06773 56.86567,13.66638 0.67959,0.42 10.37544,4.03514 21.97847,7.60151 36.96777,11.36261 40.38836,12.18516 48.72341,16.61268 10.67424,5.6701 17.83791,17.23857 19.00755,28.19027 4.31228,12.95838 2.11526,24.10653 -2.31556,33.03455 -3.88392,7.82602 -15.2147,12.67757 -21.98802,12.67757 -2.65536,0 -14.38762,-3.95074 -27.36802,-7.48306 -28.7144,-7.81395 -43.61473,-8.57314 -64.5327,-4.69281 -16.85918,3.12741 -24.22769,7.1533 -43.10553,14.63298 -21.67213,8.58681 -58.1726,48.86972 -92.29862,59.76828 -9.16096,2.92566 -15.23498,-17.3319 -19.3656,-10.08571 -1.12183,1.96798 2.24302,13.49878 3.89858,17.32412 2.67314,6.17658 3.35917,23.10042 3.35917,27.45654 0,3.31269 -15.70524,21.20301 -18.80822,21.12235 0.12237,0.4895 -6.58285,4.26618 -11.24382,-3.84889 z"
       id="path995"
       inkscape:connector-curvature="0"
       transform="matrix(0.26458333,0,0,0.26458333,0,-1.0583333)"
       sodipodi:nodetypes="cccsssssssscsccssssssscscc"
       clip-path="url(#clipPath1066)" />
    <path
       style="fill:#2f7b32;fill-opacity:1;stroke:#000000;stroke-width:0.26458332px;stroke-linecap:butt;stroke-linejoin:miter;stroke-opacity:1"
       d="m 148.24409,239.66474 c -1.86332,-3.57833 -3.00192,-5.09119 -5.21572,-6.08897 -2.21379,-0.99779 -5.50257,-1.48046 -17.29776,-1.05141 -11.79519,0.42905 -32.090258,1.76959 -44.442238,2.58082 -12.351981,0.81123 -16.754147,1.09271 -19.573931,3.97985 -2.819783,2.88715 -4.057803,8.3819 -4.32007,17.51689 -0.262267,9.135 0.45108,21.91385 2.054988,30.45437 1.603908,8.54053 4.098352,12.84345 21.495486,14.58619 17.397133,1.74274 49.696185,0.92506 66.050605,-0.46266 16.35443,-1.38771 16.76467,-3.34518 16.78272,-6.19425 0.018,-2.84906 -0.35624,-6.59188 -1.83729,-13.48264 -1.48105,-6.89075 -4.06928,-16.93182 -6.65732,-24.77387 -2.58804,-7.84205 -5.17614,-13.48599 -7.03947,-17.06432 z"
       id="path1006"
       inkscape:connector-curvature="0"
       inkscape:path-effect="#path-effect1008"
       inkscape:original-d="m 147.51941,237.59934 c -1.13835,-1.51315 -2.27694,-3.02601 -3.41584,-4.53866 -3.28895,-0.483 -6.57773,-0.96567 -9.86745,-1.44817 -20.30072,1.34066 -40.595784,2.68119 -60.897362,4.0224 -4.402383,0.28125 -8.804548,0.56274 -13.206517,0.84445 -1.237387,5.49286 -2.475406,10.98761 -3.71335,16.48111 0.713491,12.77643 1.426839,25.55528 2.139861,38.33331 2.494828,4.30286 4.989272,8.60578 7.483548,12.90913 32.299672,-0.81795 64.59872,-1.63563 96.89727,-2.45304 0.41051,-1.95772 0.82075,-3.91519 1.23074,-5.87242 -0.37381,-3.74097 -0.7481,-7.48379 -1.12254,-11.22532 -2.58763,-10.04003 -5.17585,-20.0811 -7.76418,-30.12126 -2.58775,-5.644 -5.17585,-11.28795 -7.76418,-16.93153 z"
       sodipodi:nodetypes="ccccccccccccc"
       clip-path="url(#clipPath1062)"
       transform="translate(0,-1.0583333)" />
    <path
       style="fill:#60280c;fill-opacity:1;stroke-width:1.78898001;stroke-miterlimit:4;stroke-dasharray:none"
       d="m 84.136696,243.99577 c -5.01793,-1.00132 -12.2509,-17.35236 -13.20145,-18.79792 -2.1737,-3.3057 -9.31831,-18.61957 -10.0354,-21.12558 -0.29466,-1.02976 -2.06318,-7.11029 -2.06318,-7.11029 l 0.37999,-1.56746 c 2.85924,0.0185 6.10241,-0.41631 10.97207,-4.14602 9.11239,-6.97925 12.51814,-9.09878 16.6951,-11.27541 4.90402,-2.55551 8.51518,-3.3326 14.175114,-3.85081 4.63175,-0.42408 8.31075,0.34555 13.72311,1.95386 2.46601,0.73279 5.0547,1.37646 5.41841,1.37646 0.60384,0 1.05956,0.66136 1.05956,5.95714 0,1.79947 0.35109,9.70999 1.72259,16.63998 1.05972,5.35461 3.13469,10.15089 3.58883,10.92112 1.71578,2.90996 6.75622,8.86256 3.20827,13.51452 -1.8851,2.47169 -1.61208,7.21818 -3.12574,9.42331 -1.56323,2.27734 -4.54074,7.53725 -6.81574,9.09686 -2.6521,1.81812 -8.38983,4.0144 -11.18977,4.74364 -2.38779,0.62189 -7.37308,2.34891 -8.927517,2.03873 z"
       id="path998"
       inkscape:connector-curvature="0"
       sodipodi:nodetypes="cscccsssssssssccccc"
       clip-path="url(#clipPath1058)"
       transform="translate(0,-1.0583333)" />
  </g>
  <g
     inkscape:groupmode="layer"
     id="layer2"
     inkscape:label="Layer 2">
    <path
       style="fill:#cc2052;fill-opacity:1;stroke:#000000;stroke-width:0.26458332px;stroke-linecap:butt;stroke-linejoin:miter;stroke-opacity:1"
       d="m 124.15321,257.20087 c -0.82204,3.43554 -2.46605,10.30642 -2.3937,17.18331 0.0724,6.87689 1.86115,13.75758 3.11796,19.6198 1.2568,5.86222 1.98132,10.70468 -2.00747,12.11343 -3.98879,1.40874 -12.6898,-0.61694 -17.03467,-2.6052 -4.34486,-1.98825 -4.33233,-3.93841 -5.09649,-8.71514 -0.764156,-4.77673 -2.304962,-12.38003 -4.257133,-19.09443 -1.95217,-6.71441 -4.315695,-12.53999 -3.751215,-15.20326 0.564479,-2.66326 4.056927,-2.16434 9.918818,-2.75965 5.86188,-0.5953 14.0943,-2.28493 18.21011,-3.12967 4.1158,-0.84473 4.11582,-0.84473 3.29379,2.59081 z"
       id="path1010"
       inkscape:connector-curvature="0"
       inkscape:path-effect="#path-effect1012"
       inkscape:original-d="m 124.97524,253.76533 c -1.64388,6.87112 -3.2879,13.742 -4.93241,20.61412 1.78935,6.88154 3.57814,13.76223 5.36688,20.64396 0.72486,4.84275 1.44937,9.68521 2.17374,14.52871 -8.70217,-2.02628 -17.40318,-4.05196 -26.10552,-6.07763 0.0128,-1.95053 0.0254,-3.90069 0.0376,-5.85065 -1.540538,-7.60356 -3.081348,-15.20686 -4.622418,-22.8099 -2.36325,-5.82584 -4.72678,-11.65142 -7.09057,-17.47674 3.49247,0.49863 6.98492,0.99754 10.476968,1.49671 8.23164,-1.68968 16.46406,-3.37932 24.69571,-5.06858 z"
       sodipodi:nodetypes="cccccccccc"
       clip-path="url(#clipPath1054)"
       transform="translate(0,-1.0583333)" />
    <g
       id="g991"
       style="fill:#ffffff;fill-opacity:1"
       transform="translate(3.1750001,-1.0583333)"
       clip-path="url(#clipPath1050)">
      <path
         inkscape:original-d="m 103.41169,228.55073 c -2.99084,0.31155 -5.981947,0.62336 -8.973316,0.93544 -2.180968,-0.0938 -4.361783,-0.18735 -6.543068,-0.28063 -1.277323,1.09121 -2.554647,2.18244 -3.832359,3.27405 -0.06205,1.09133 -0.124364,2.18244 -0.186946,3.27405 0.966383,0.90423 1.932027,1.80826 2.897651,2.71279 1.68274,0.218 3.365251,0.43627 5.047501,0.65481 3.115576,0.0621 6.231729,0.12446 9.347197,0.18709 1.21531,-0.49913 2.43055,-0.99807 3.64542,-1.49671 0.74785,-0.84194 1.4958,-1.68406 2.24333,-2.5257 0.0626,-0.7172 0.1249,-1.43461 0.18695,-2.15152 -0.3112,-0.77949 -0.68519,-1.55933 -1.0282,-2.33861 -0.93431,-0.7485 -1.86918,-1.49697 -2.80416,-2.24506 z"
         inkscape:path-effect="#path-effect983"
         inkscape:connector-curvature="0"
         id="path981"
         d="m 102.38366,229.08081 c -1.96279,-0.2183 -4.953892,0.0935 -7.540079,0.20267 -2.586186,0.10915 -4.767002,0.0156 -6.496293,0.51445 -1.729291,0.49884 -3.00661,1.59007 -3.676632,2.68152 -0.670022,1.09145 -0.732324,2.18257 -0.280423,3.18063 0.451901,0.99806 1.417541,1.90209 2.741831,2.46337 1.32429,0.56128 3.0068,0.77955 5.40573,0.91985 2.39893,0.1403 5.515083,0.20267 7.680506,-0.0156 2.16542,-0.21832 3.38065,-0.71726 4.36198,-1.38762 0.98132,-0.67037 1.72928,-1.51248 2.13421,-2.29191 0.40493,-0.77942 0.46727,-1.49683 0.32961,-2.23922 -0.13766,-0.74238 -0.48557,-1.53369 -1.12418,-2.2975 -0.63861,-0.76382 -1.57348,-1.51229 -3.53626,-1.73059 z"
         style="fill:#ffffff;fill-opacity:1;stroke:#000000;stroke-width:0.26448119px;stroke-linecap:butt;stroke-linejoin:miter;stroke-opacity:1" />
      <path
         inkscape:original-d="m 84.229835,234.02499 c 3.604,0.72347 7.207734,1.4472 10.811206,2.17119 3.960072,-0.71739 7.920349,-1.43461 11.880129,-2.15152"
         inkscape:path-effect="#path-effect987"
         inkscape:connector-curvature="0"
         id="path985"
         d="m 84.229835,234.02499 c 3.60394,0.72377 7.207674,1.4475 10.989494,1.45075 3.781821,0.003 7.742101,-0.71396 11.701841,-1.43108"
         style="fill:#ffffff;fill-opacity:1;stroke:#000000;stroke-width:0.26458332px;stroke-linecap:butt;stroke-linejoin:miter;stroke-opacity:1"
         sodipodi:nodetypes="ccc" />
    </g>
  </g>
  <g
     inkscape:groupmode="layer"
     id="layer3"
     inkscape:label="Layer 3">
    <path
       style="fill:#60280c;fill-opacity:1;stroke-width:6.7614994;stroke-miterlimit:4;stroke-dasharray:none"
       d="m 229.35358,829.13593 c -4.84762,-2.84326 -20.90892,-18.28599 -20.89852,-26.04343 0.007,-5.33961 -0.75368,-13.09637 4.84914,-16.51245 2.53502,-1.54562 13.87108,-9.27833 13.87108,-9.27833 1.3786,-0.007 8.88534,19.59196 9.72707,39.59993 1.02081,24.26462 0.60524,17.01681 -7.54877,12.23428 z"
       id="path1000"
       inkscape:connector-curvature="0"
       transform="matrix(0.26458333,0,0,0.26458333,0,-1.0583333)"
       sodipodi:nodetypes="scscss"
       clip-path="url(#clipPath1046)" />
    <path
       style="fill:none;stroke:#000000;stroke-width:0.26458332px;stroke-linecap:butt;stroke-linejoin:miter;stroke-opacity:1"
       d="m 73.338758,235.63491 c -2.770976,0.2874 -5.542238,0.57483 -8.313788,0.86229"
       id="path1002"
       inkscape:connector-curvature="0"
       inkscape:path-effect="#path-effect1004"
       inkscape:original-d="m 73.338758,235.63491 c -2.771,0.28717 -5.542262,0.5746 -8.313788,0.86229"
       clip-path="url(#clipPath1042)"
       transform="translate(0,-1.0583333)" />
    <path
       style="fill:none;stroke:#000000;stroke-width:0.26458332px;stroke-linecap:butt;stroke-linejoin:miter;stroke-opacity:1"
       d="m -310.83396,62.027128 c -3.17943,-0.671777 -6.85156,-0.134391 -9.53857,0.716443 -2.68701,0.850833 -4.3886,2.015078 -5.23961,3.224281 -0.85101,1.209202 -0.85101,2.642013 -0.26869,3.67223 0.58231,1.030218 1.74643,1.746602 3.94073,2.328749 2.19431,0.582148 5.41884,1.030001 8.46398,1.029976 3.04513,-2.5e-5 5.91139,-0.447878 7.65783,-1.11969 1.74644,-0.671812 2.37347,-1.567561 2.7764,-2.507824 0.40293,-0.940264 0.58211,-1.925804 -0.67138,-3.358378 -1.2535,-1.432573 -3.94126,-3.314009 -7.12069,-3.985787 z"
       id="path1018"
       inkscape:connector-curvature="0"
       inkscape:path-effect="#path-effect1020"
       inkscape:original-d="m -310.34154,60.818005 c -3.67188,0.537123 -7.34401,1.074513 -11.01642,1.612165 -1.70162,1.164169 -3.40321,2.328415 -5.10519,3.493021 2.6e-4,1.253863 2.6e-4,2.686674 0,4.030408 1.16482,0.716394 2.32894,1.432772 3.493,2.149552 3.2244,0.447532 6.44893,0.895382 9.67298,1.343472 2.86615,-0.448058 5.73241,-0.895913 8.59822,-1.343472 0.62714,-0.895816 1.25418,-1.791557 1.88087,-2.686939 0.17933,-0.985144 0.35851,-1.970685 0.53737,-2.955634 -2.68584,-1.880544 -5.37361,-3.761978 -8.06083,-5.642573 z" />
    <path
       id="path826"
       style="fill:#000000;stroke-width:0.80000001"
       d="m 328.31055,553.61914 c -7.83409,-0.0117 -10.87407,0.37986 -18.79883,2.41797 -5.19972,1.33731 -11.43548,3.41492 -13.85547,4.61719 -14.67409,7.28991 -26.00479,15.098 -34.06055,23.46875 -7.15269,7.43232 -21.77727,24.19497 -24.32617,27.88281 -1.06438,1.54001 -2.18344,2.97925 -2.48633,3.19922 -0.52092,0.37837 -5.32186,8.0545 -7.92578,12.67187 -0.66,1.17037 -1.62306,2.39983 -2.13867,2.73243 -0.51562,0.33239 -1.1685,1.65834 -1.45117,2.94531 -0.28267,1.287 -1.00136,2.74538 -1.59766,3.24023 -0.59629,0.49489 -1.86166,3.48879 -2.8125,6.6543 -0.95084,3.1655 -2.23542,6.54515 -2.85351,7.50976 -1.90723,2.97646 -4.93741,20.75087 -6.03907,35.41797 -0.87771,11.68543 -1.28733,14.17127 -2.50195,15.19922 -3.60292,3.04932 -6.44396,6.34787 -8.82812,10.25 -5.3686,8.78661 -20.38563,30.6365 -24.77735,36.05078 -1.65,2.03422 -3,4.01391 -3,4.39844 0,0.38457 -0.86055,1.721 -1.91211,2.9707 -2.92975,3.48182 -4.96048,10.71209 -3.88672,13.83594 0.47722,1.38834 1.09071,3.60383 1.36329,4.92383 0.59948,2.90411 8.23119,11.25333 13.23437,14.47852 1.98,1.27614 7.92117,4.48109 13.20117,7.12109 8.81231,4.40617 9.62005,4.99613 9.8418,7.19922 0.61303,6.0909 4.19346,13.02663 9.85156,19.08008 6.55815,7.01635 18.00695,15.03918 24.2832,17.01757 4.65384,1.46703 4.82509,1.62843 3.6836,3.43164 -0.4115,0.65023 -0.41627,1.6677 -0.0117,2.4004 0.38575,0.69916 1.25898,3.01393 1.94141,5.14453 0.68241,2.13055 2.07292,5.01096 3.08984,6.40039 1.01692,1.38943 3.58639,6.66657 5.71094,11.72656 2.12454,5.06003 4.88674,11.39358 6.13672,14.07617 1.24998,2.6826 2.27148,5.40163 2.27148,6.04102 0,0.63942 0.31639,1.50389 0.70117,1.92187 0.3848,0.41802 3.47874,6.15973 6.87696,12.75977 3.39801,6.6 6.81055,12.72157 7.58203,13.60156 0.77144,0.87999 1.63935,2.13885 1.92773,2.79883 1.16398,2.6623 4.27717,7.37362 6.74414,10.20312 1.43728,1.64852 4.92985,5.87646 7.75977,9.39649 5.42188,6.74392 19.05119,20.60986 23.34375,23.74804 5.32134,3.89031 12.70522,9.42693 13.62304,10.21485 0.52653,0.45199 3.40693,2.1508 6.40039,3.77539 2.99347,1.62455 6.47502,3.74029 7.73829,4.70312 4.30888,3.28419 36.71645,12.97819 44.25,13.23633 1.239,0.0424 4.2343,0.53301 6.65429,1.08985 5.24595,1.20703 22.78735,1.42946 31.19922,0.39648 3.30002,-0.40528 7.43921,-0.91562 9.19922,-1.13672 4.3242,-0.54289 13.59129,-2.61679 18,-4.02734 1.97998,-0.63349 6.12116,-1.92692 9.20117,-2.87305 8.63426,-2.65228 19.1356,-9.00188 25.62891,-15.49609 10.15275,-10.15416 15.95767,-19.43709 21.92187,-35.06446 1.71409,-4.49125 3.83935,-9.96599 4.72266,-12.16601 3.96552,-9.87647 7.4174,-22.87382 8.55273,-32.19727 1.37885,-11.3229 0.50061,-29.44196 -1.625,-33.51758 -0.6554,-1.25665 -1.19484,-2.92093 -1.19726,-3.69921 -0.006,-1.74131 -3.35972,-11.31669 -5.10938,-14.58594 -0.70647,-1.32 -1.28668,-3.55358 -1.28906,-4.96289 -0.007,-3.60703 -1.5619,-6.59539 -3.71094,-7.13477 -1.00705,-0.25274 -3.18755,-2.13495 -4.8457,-4.18164 -10.94872,-13.51434 -19.49827,-19.51636 -22.55273,-15.83594 -1.02127,1.23058 -0.34992,5.39022 2.34375,14.51563 3.67196,12.44451 4.12276,15.59713 3.64257,25.59961 -0.51722,10.77403 -0.71557,11.69892 -5.125,24 -4.12335,11.50295 -5.30957,14.14036 -7.60937,16.9043 -1.05105,1.26291 -2.83743,3.77454 -3.96875,5.58203 -2.09919,3.3538 -16.37526,17.91406 -17.56445,17.91406 -0.36061,0 -0.99874,0.90578 -1.41993,2.01367 -0.42122,1.10789 -1.64927,2.35138 -2.72851,2.76172 -1.07928,0.4103 -4.05661,2.36456 -6.61524,4.34375 -4.19293,3.24333 -8.3982,5.68426 -19.45117,11.28711 -8.8676,4.49507 -24.55839,8.40662 -36.01758,8.98047 -7.07603,0.35437 -10.19886,0.0736 -19.59961,-1.76563 -6.15046,-1.20329 -12.69317,-2.87082 -14.53906,-3.70508 -1.84584,-0.83425 -3.58681,-1.51562 -3.86914,-1.51562 -0.28222,0 -2.01181,-1.0227 -3.84375,-2.27148 -7.05513,-4.8101 -9.8449,-6.5293 -10.5957,-6.5293 -0.42837,0 -1.70461,-0.98924 -2.83594,-2.19922 -1.13136,-1.21002 -4.14327,-4.00119 -6.69336,-6.20117 -5.38087,-4.64213 -8.81829,-8.22835 -15.33594,-16 -2.58304,-3.08002 -5.86477,-6.85843 -7.29101,-8.39844 -4.9996,-5.3983 -6.20311,-6.86473 -12.3086,-14.98633 -3.38479,-4.50244 -6.37542,-8.88031 -6.64453,-9.72851 -0.26921,-0.84817 -1.37416,-2.12274 -2.45703,-2.83203 -1.08283,-0.7095 -1.96875,-1.98228 -1.96875,-2.82618 0,-0.84389 -0.3173,-1.72912 -0.70508,-1.96875 -0.70733,-0.43717 -8.89453,-12.23439 -8.89453,-12.8164 0,-0.17054 -1.59272,-3.00476 -3.53906,-6.29688 -1.94634,-3.29208 -6.08228,-11.06071 -9.19141,-17.26367 -3.10911,-6.20296 -5.98417,-11.9084 -6.38867,-12.67969 -3.39122,-6.46635 -9.6913,-20.20742 -10.02929,-21.87695 -0.23123,-1.14146 -1.80764,-3.84144 -3.50391,-6 -2.22458,-2.83087 -3.75826,-6.15539 -5.50195,-11.92578 -4.62838,-15.31654 -7.90626,-29.86782 -6.93946,-30.80469 0.38137,-0.36949 2.49336,-0.20673 4.69336,0.36133 8.82915,2.2797 16.39189,-0.29354 32.25586,-10.9707 3.11649,-2.09753 5.85419,-4.11796 6.08399,-4.49024 0.36359,-0.58832 7.38752,-6.05341 27.09375,-21.08398 2.73165,-2.08351 7.75601,-5.66676 11.16601,-7.96289 3.41,-2.29618 6.19922,-4.43038 6.19922,-4.74219 0,-0.75689 25.81975,-14.46741 35.85742,-19.04102 2.33526,-1.06405 5.75402,-2.19379 7.59571,-2.50976 1.84152,-0.31605 6.94764,-1.3465 11.34765,-2.28906 7.46801,-1.60007 30.41151,-3.54463 31.8418,-2.69922 0.35304,0.20866 4.13342,0.53405 8.40039,0.72265 5.56702,0.24605 9.91793,1.00817 15.4043,2.70117 4.20517,1.29767 9.60517,2.7724 12,3.27735 2.39486,0.50494 4.71428,1.20628 5.15429,1.55664 1.12328,0.89488 13.16766,3.95379 20.79883,5.2832 10.04262,1.74947 15.16587,0.4301 22.32422,-5.75 5.09609,-4.39963 11.42512,-15.60272 12.00195,-21.24805 0.19726,-1.93011 0.74126,-5.67054 1.21094,-8.31054 1.65362,-9.29439 -2.13776,-26.62319 -8.06055,-36.83203 -6.14426,-10.59054 -16.60335,-18.49287 -29.07617,-21.96875 -3.52002,-0.98094 -11.80039,-3.51284 -18.40039,-5.62696 -48.68285,-15.59406 -69.58711,-21.57029 -84,-24.01757 -2.64,-0.44826 -7.85962,-1.33533 -11.59961,-1.97071 -3.74003,-0.63541 -11.00621,-1.16236 -16.14648,-1.16992 z m 0.97851,8.0293 c 0.82776,-0.003 1.64871,0.002 2.45313,0.0156 3.86119,0.064 7.3546,0.32348 9.51562,0.79297 1.97998,0.43019 7.01921,1.29978 11.19922,1.93164 4.18001,0.6319 12.46037,2.45182 18.40039,4.04492 5.93998,1.59307 12.95984,3.26796 15.59961,3.72071 2.63977,0.45278 6.2398,1.55963 8,2.46093 1.76024,0.90131 4.27961,1.90877 5.59961,2.24024 4.84169,1.21515 26.63929,7.86613 34.86328,10.63672 4.65487,1.56816 10.05487,3.09311 12,3.38867 1.94514,0.29571 4.07631,1.00117 4.73633,1.56836 0.65998,0.56723 2.28156,1.28584 3.60156,1.59766 5.33299,1.2591 16.46827,7.76829 20.69336,12.0957 4.60464,4.71609 7.79925,11.82283 10.36914,23.0625 3.68017,16.09572 -0.43311,32.29571 -9.75195,38.4043 -5.62201,3.68521 -9.98013,4.62861 -16.39063,3.55273 -3.14611,-0.528 -6.62071,-1.31911 -7.7207,-1.75977 -1.10003,-0.44061 -3.26081,-1.06627 -4.80078,-1.38867 -1.54001,-0.32258 -8.37921,-2.20669 -15.19922,-4.1875 -20.1261,-5.84545 -31.94356,-7.31261 -49.19922,-6.10547 -6.15998,0.43094 -14.08153,1.51943 -17.60156,2.41797 -3.51999,0.89858 -8.25717,1.95571 -10.52734,2.34961 -2.27021,0.3939 -6.40944,1.79742 -9.19922,3.11719 -2.78982,1.31981 -5.51236,2.3981 -6.04883,2.39844 -0.53643,3.4e-4 -2.33644,0.70308 -4,1.56054 -1.66356,0.85746 -4.64307,2.28039 -6.62305,3.16211 -1.98002,0.88177 -4.50153,2.15987 -5.60156,2.83985 -1.09999,0.67997 -2.90001,1.60138 -4,2.04687 -1.95791,0.79298 -3.91112,1.94508 -11.51953,6.79297 -8.5437,5.44384 -13.20904,8.74875 -19.2793,13.6582 -3.51999,2.84689 -11.36579,8.94755 -17.43359,13.55664 -6.06781,4.60906 -12.00702,9.30222 -13.19922,10.42969 -1.1922,1.12747 -3.24836,2.53529 -4.56836,3.12891 -1.32,0.59357 -3.43512,2.00322 -4.70117,3.13281 -2.38491,2.12784 -9.46181,5.13539 -13.76563,5.84961 -3.57014,0.59248 -8.53013,-2.23538 -11.83984,-6.75195 -5.7936,-7.90617 -5.8128,-7.91002 -9.01172,-1.37696 l -2.12305,4.33594 2.08399,3.01758 c 1.1461,1.65974 2.4212,4.99797 2.83398,7.41797 0.41279,2.41999 1.55056,7.28079 2.52735,10.80078 2.08605,7.51748 3.08229,12.62407 3.14843,16.12305 0.0427,2.2611 -0.62998,3.00836 -6.47461,7.19921 -3.58724,2.57224 -6.91567,5.39735 -7.39843,6.27539 -0.48275,0.87829 -1.89951,2.94789 -3.14649,4.59961 -3.11306,4.12366 -6.84692,4.1983 -11.48242,0.23047 -3.2373,-2.77103 -7.90121,-4.3704 -12.84961,-4.4082 -1.70615,-0.0128 -2.59961,-0.41114 -2.59961,-1.1582 0,-0.62616 -1.00345,-2.15655 -2.23047,-3.40039 -1.22701,-1.24385 -3.42588,-4.39144 -4.88476,-6.9961 -2.53726,-4.52995 -2.5995,-4.84399 -1.44727,-7.20117 1.07182,-2.19269 8.26115,-12.32331 13.81641,-19.4707 1.11464,-1.43411 4.21705,-5.9341 6.89453,-10 2.67747,-4.06587 5.74262,-8.70643 6.8125,-10.3125 1.06987,-1.60604 3.10465,-4.12567 4.52148,-5.59961 1.41683,-1.47398 3.63493,-4.30127 4.92969,-6.28125 1.29476,-1.98002 3.95842,-5.51574 5.91797,-7.85742 l 3.5625,-4.25782 1.04883,-13.34179 c 0.61685,-7.85148 1.68206,-15.48299 2.58984,-18.54297 0.84845,-2.86001 1.79436,-6.81885 2.10156,-8.79883 0.6524,-4.20499 2.66246,-9.60156 3.57618,-9.60156 0.78839,0 2.39062,-4.46811 2.39062,-6.66602 0,-2.03864 2.88071,-8.16171 5.33203,-11.33398 1.02,-1.32 2.39026,-3.11998 3.04688,-4 0.65661,-0.87999 1.92133,-2.55523 2.80859,-3.72461 0.88727,-1.16943 1.61328,-2.51806 1.61328,-2.9961 0,-0.47807 1.70883,-2.58125 3.79883,-4.67382 2.09,-2.09258 4.52039,-4.90498 5.40039,-6.25 3.00353,-4.59066 7.99878,-10.66326 8.80859,-10.70899 0.4447,-0.0251 2.31845,-1.93608 4.16407,-4.24609 4.93916,-6.18191 10.58068,-11.43797 14.35937,-13.37891 1.83247,-0.94125 3.53161,-2.23012 3.77539,-2.86523 0.24374,-0.63515 0.96545,-1.15625 1.60547,-1.15625 0.64006,0 2.24025,-0.90373 3.55469,-2.00977 1.31441,-1.106 3.7716,-2.58316 5.46094,-3.2832 1.68929,-0.70005 5.95071,-2.63385 9.4707,-4.29688 3.51999,-1.66303 8.99134,-3.60547 12.1582,-4.3164 3.52791,-0.79196 9.68034,-1.22567 15.47461,-1.25 z m 94.83008,139.98242 c -0.61451,-0.0393 -1.31668,0.21705 -1.67383,0.79492 -0.45403,0.73467 2.42989,5.38721 9.15821,14.7793 1.26081,1.75997 5.83815,6.44039 10.17187,10.40039 8.85335,8.08981 8.335,7.65958 12.68164,10.55273 1.76001,1.17151 5.24009,3.49644 7.73242,5.16797 5.17773,3.47248 9.2708,5.14599 16.64258,6.80078 2.84617,0.63889 5.33629,1.32224 5.5332,1.51953 0.19714,0.19692 0.84128,0.35938 1.43165,0.35938 1.869,0 -0.59794,-3.06557 -4.1504,-5.15625 -1.76636,-1.03956 -4.77063,-3.70179 -6.67578,-5.91406 -1.90518,-2.21224 -7.29981,-6.81056 -11.98828,-10.21875 -4.6885,-3.40823 -10.74421,-8.02217 -13.45508,-10.25391 -2.71086,-2.23173 -7.66086,-5.98288 -11,-8.33594 -3.33913,-2.35309 -6.07031,-4.5221 -6.07031,-4.82031 0,-0.29832 -1.61593,-1.25248 -3.5918,-2.12109 -1.97582,-0.86861 -3.59583,-2.03008 -3.59961,-2.58008 -0.005,-0.60098 -0.53197,-0.93532 -1.14648,-0.97461 z m -82.65039,6.3125 c -1.85941,-0.0109 -5.18282,1.66565 -7.41211,4.15234 -0.66002,0.73622 -5.16001,4.82683 -10,9.0918 -4.84002,4.26497 -9.52894,8.53396 -10.41992,9.48633 -0.89102,0.95236 -3.59101,3.25267 -6,5.11133 -2.409,1.85862 -5.60002,4.64783 -7.0918,6.19922 -1.49182,1.55114 -3.13762,2.82031 -3.65625,2.82031 -0.51866,0 -3.79755,2.9201 -7.28711,6.48828 -3.48956,3.56814 -7.78491,7.46138 -9.54492,8.65234 -5.44331,3.68345 -15.59961,13.13582 -15.59961,14.51758 0,1.31592 1.49453,0.81452 8.61524,-2.89062 6.84207,-3.56021 25.09204,-14.73728 28.47461,-17.43946 0.94097,-0.75186 4.76977,-3.31298 8.50976,-5.6914 7.42704,-4.7232 8.31482,-5.43768 18.56641,-14.94727 4.82536,-4.47613 7.24973,-7.35963 7.88476,-9.37695 0.50423,-1.60196 1.71814,-4.17097 2.69727,-5.71094 1.87003,-2.9413 3.65234,-7.49019 3.65234,-9.32031 0,-0.78386 -0.54348,-1.1376 -1.38867,-1.14258 z m 44.02148,8.72852 c -2.14998,0.43709 -6.63281,5.15263 -6.63281,6.97656 0,0.93055 1.79998,4.65715 4,8.27929 2.19999,3.62219 4,6.92154 4,7.33204 0,0.41049 0.63039,1.39004 1.40039,2.17773 0.77001,0.78769 2.22539,3.03767 3.23438,5 2.00216,3.89393 4.52379,8.3638 8.55859,15.16797 1.43505,2.41999 4.12296,7.2788 5.97266,10.79883 1.84974,3.51998 3.81007,6.94158 4.35742,7.60156 0.98623,1.18919 7.67578,14.77581 7.67578,15.58984 0,0.23286 1.08039,1.91415 2.40039,3.73633 1.32,1.82222 2.40039,3.99921 2.40039,4.83789 0,1.35122 2.86518,7.77548 5.45703,12.23438 2.04518,3.51855 4.14258,10.23612 4.14258,13.26953 0,4.2466 -1.57081,7.08591 -6.47656,11.70703 -4.39786,4.14263 -7.93769,5.97603 -14.98828,7.76367 -15.00318,3.80413 -32.02225,3.67815 -37.08594,-0.27539 -1.01673,-0.79385 -2.74962,-1.71257 -3.84961,-2.04102 -3.28112,-0.97922 -8.02528,-6.09795 -10.45703,-11.2832 -2.05421,-4.38032 -3.7622,-10.90961 -3.29297,-12.58398 0.0993,-0.35433 0.33976,-2.22222 0.53516,-4.15235 0.42002,-4.15098 2.11972,-8.48941 4.91211,-12.5332 2.17466,-3.14925 12.01241,-8.7848 17.02734,-9.75391 1.49805,-0.28951 3.20688,-0.9267 3.79883,-1.41796 1.10135,-0.91405 1.41732,-5.34976 0.59765,-8.4043 -0.67177,-2.50345 -5.38033,-3.07976 -9.50976,-1.16406 -1.76651,0.81947 -4.989,1.98041 -7.16211,2.58007 -3.18845,0.87984 -5.20747,2.32559 -10.46094,7.49024 -5.37959,5.28862 -6.88098,7.33938 -8.64844,11.80859 -1.89475,4.79139 -2.13816,6.47877 -2.12304,14.79883 0.014,8.34558 0.28042,10.14294 2.39258,16.13281 1.3073,3.70738 3.10034,7.51015 3.98437,8.45118 0.88403,0.94078 1.61574,2.0493 1.63086,2.46093 0.0136,0.41163 1.63519,1.96002 3.60156,3.44141 1.96642,1.48138 3.57422,2.98009 3.57422,3.33008 0,0.34994 -1.53039,0.87707 -3.40039,1.17187 -1.87,0.29481 -7.00042,1.37341 -11.40039,2.39649 -15.97512,3.71448 -21.86426,4.29428 -25.31055,2.49609 -1.1608,-0.60559 -2.98094,-0.93381 -4.04492,-0.73047 -1.27472,0.24371 -4.25144,-0.85354 -8.72851,-3.21484 -9.81532,-5.17682 -12.55882,-4.20524 -14.31641,5.0625 -1.5193,8.0112 2.083,19.54985 7.25195,23.23047 3.34333,2.38068 14.71757,0.9823 15.20508,0.84179 0.26738,-0.17112 1.30782,-0.45622 2.3125,-0.90625 0.14037,-0.0627 4.36609,-4.44657 12.43164,-7.44531 10.97401,-4.81943 18.46616,-6.41832 21.24691,-7.174 7.42768,-2.01837 29.49619,-2.62174 35.25895,-1.95881 4.61983,0.53144 18.34909,1.2667 38.12499,11.08001 2.32653,0.83894 5.20494,1.52696 6.39844,1.52734 1.83726,5.3e-4 10.06285,1.52681 15.77148,2.92773 3.4159,0.83838 20.08691,1.63943 21.66992,1.04102 0.91903,-0.34741 2.62977,-1.77045 3.80079,-3.16211 4.57776,-5.44036 1.86228,-17.15135 -5.74024,-24.75391 -4.96286,-4.96282 -6.45449,-5.70704 -11.53516,-5.7539 -5.63004,-0.0522 -7.42338,0.82379 -12.5957,6.14453 -5.97199,6.14332 -8.40301,7.14337 -13.3125,5.47656 -4.19097,-1.42288 -8.43309,-4.23811 -7.83789,-5.20117 0.21268,-0.34413 1.94029,-1.40095 3.83985,-2.34961 5.604,-2.79889 14.6078,-12.00177 17.37695,-17.75977 2.16389,-4.49894 2.35885,-5.52309 1.90625,-10.02734 -0.49935,-4.96894 -2.50943,-11.8472 -4.06641,-13.91211 -0.44402,-0.58889 -1.81676,-3.77029 -3.05078,-7.07031 -1.23402,-3.29998 -3.03239,-7.26078 -3.99609,-8.80078 -0.96371,-1.54001 -2.2445,-4.0596 -2.84571,-5.59961 -0.60121,-1.53997 -1.69222,-3.70075 -2.42382,-4.80078 -0.73157,-1.1 -1.59237,-2.71959 -1.91211,-3.59961 -0.3199,-0.87999 -2.38137,-4.59136 -4.58204,-8.24805 -2.20042,-3.65669 -4.50316,-8.07218 -5.11718,-9.8125 -0.61402,-1.74032 -1.97209,-4.32896 -3.01758,-5.75195 -1.04553,-1.42299 -2.87835,-4.50487 -4.07227,-6.84961 -1.19395,-2.34467 -3.23171,-5.73018 -4.52929,-7.52149 -1.29763,-1.7913 -2.35938,-3.69957 -2.35938,-4.24023 0,-1.261 -5.09043,-9.73025 -7.19336,-11.96875 -0.88414,-0.9411 -1.61007,-2.04736 -1.61328,-2.45898 -0.003,-0.41167 -1.63357,-3.26769 -3.625,-6.34766 -2.44641,-3.78369 -4.0477,-5.51465 -4.93555,-5.33398 z m 63.54883,33.64062 c -5.24628,-0.0799 -5.85728,0.0849 -7.54492,2.04688 -1.98716,2.31003 -2.25434,4.04384 -1.0918,7.10156 1.06625,2.80448 6.31114,7.70187 10.05469,9.38867 6.05193,2.72693 11.3221,1.83743 16.42578,-2.77344 1.62066,-1.46415 3.35388,-2.79956 3.85157,-2.96679 0.65108,-0.21903 0.67957,-1.1225 0.0996,-3.22071 -1.60962,-5.82304 -9.73581,-9.39248 -21.79492,-9.57617 z m 170.15625,1.13477 c -0.16674,1.52114 -0.2024,2.9873 -0.0195,4.23046 -0.003,-0.50261 5.4e-4,-1.0052 -0.004,-1.50781 0.007,-1.05408 0.0191,-1.81805 0.0234,-2.72265 z m -290.24023,3.25976 c -9.27698,-0.0708 -19.51514,3.10355 -22.01563,7.1875 -0.84567,1.38123 -1.62388,3.41173 -1.73047,4.51172 -0.37443,3.86321 3.12037,9.62516 6.84766,11.28906 0.87999,0.3927 4.06308,0.55017 7.07227,0.35157 6.17189,-0.40744 7.92864,-1.43783 15.28515,-8.97266 5.42272,-5.55413 6.58818,-8.11363 5.10547,-11.20899 -0.97841,-2.04257 -1.61925,-2.32342 -6.67187,-2.92187 -1.26073,-0.14933 -2.5673,-0.22622 -3.89258,-0.23633 z m -102.74414,26.1875 c 0.89642,-0.0354 1.44531,0.27382 1.44531,1.01953 0,0.60972 0.53803,2.14011 1.19531,3.40039 0.65729,1.26032 1.19877,4.27241 1.20117,6.69532 0.003,2.4229 0.36819,5.66407 0.8125,7.20117 0.7719,2.67031 3.871,19.00071 4.40235,23.19531 0.13934,1.10003 0.51071,3.52844 0.82422,5.39844 0.44152,2.63365 0.32059,3.3961 -0.53321,3.38476 -1.39134,-0.0192 -7.93909,-4.10286 -9.39843,-5.86133 -0.60389,-0.72743 -1.54487,-1.32226 -2.08985,-1.32226 -1.70099,0 -10.54036,-10.15369 -11.98242,-13.76367 -0.75516,-1.89041 -1.65207,-3.79636 -1.99219,-4.23633 -2.81394,-3.64037 -0.74538,-12.55337 4.17774,-17.99805 3.43893,-3.80321 9.24823,-7.00715 11.9375,-7.11328 z m 310.30078,100.67188 c -1.67007,-0.007 -0.4975,1.89579 3.32617,5.78515 7.14471,7.2675 14.97738,18.13706 18.3418,25.45313 0.91052,1.97998 2.1086,4.14076 2.66211,4.80078 1.17819,1.40492 6.81445,14.44644 6.81445,15.76758 0,0.49576 0.90001,2.69272 2,4.88281 1.09999,2.19005 2.01626,4.4703 2.03516,5.06641 0.0193,0.5961 0.58529,2.52319 1.25586,4.2832 1.43024,3.7539 2.44094,7.14581 3.93359,13.19922 0.59671,2.41999 1.58317,6.40401 2.19141,8.85156 0.60827,2.44755 1.42478,4.96516 1.81445,5.5957 0.38967,0.6305 0.9758,2.76806 1.30273,4.75 0.32708,1.98195 0.93241,5.22311 1.34571,7.20313 4.92846,23.61102 8.2262,40.70502 10.10742,52.40042 0.56621,3.52 1.79614,10.3592 2.73437,15.1992 1.70446,8.7928 3.63033,20.1005 4.83789,28.4004 0.3521,2.42 1.38744,8.5396 2.30078,13.5996 1.02054,5.6527 1.83038,10.1704 2.49024,13.9101 3.05849,7.8407 5.47159,12.7082 3.47461,17.1954 0.37482,0.1756 0.46495,0.4877 0.34375,0.8945 h 45.0332 46.40039 v -4.3692 c 0,-4.3706 -2.53578,-12.4478 -5.6582,-18.0293 -5.44127,-9.7244 -9.90403,-15.7267 -23.9082,-32.1328 -8.14489,-9.5418 -11.1626,-13.2075 -15.93164,-19.3613 -2.43236,-3.1385 -5.96907,-7.5029 -7.86133,-9.6933 -1.89222,-2.1925 -3.44141,-4.3987 -3.44141,-4.9024 0,-0.5037 -0.56273,-1.3808 -1.25,-1.9512 -2.92286,-2.4257 -13.15039,-18.9754 -13.15039,-21.2793 0,-0.5192 -1.08039,-1.9651 -2.40039,-3.2109 -1.32,-1.2459 -2.39844,-2.9137 -2.39844,-3.707 0,-2.0087 -2.17344,-6.1119 -4.74609,-8.9629 -1.19112,-1.32042 -2.83796,-4.02004 -3.66016,-6.00002 -0.82216,-1.98002 -1.92382,-4.13885 -2.44922,-4.79883 -0.52543,-0.66002 -1.22063,-2.10118 -1.54492,-3.20117 -0.32409,-1.1 -1.04141,-2.5392 -1.59375,-3.19922 -0.5523,-0.65998 -1.45461,-2.64042 -2.00586,-4.40039 -0.55124,-1.76001 -1.49293,-3.76262 -2.09179,-4.45117 -0.59887,-0.6886 -1.48587,-2.48857 -1.97071,-4 -0.48487,-1.51144 -2.2633,-5.62845 -3.95312,-9.14844 -1.68983,-3.51999 -3.2755,-6.93963 -3.52344,-7.59961 -0.24797,-0.66002 -0.78327,-1.74041 -1.18945,-2.40039 -1.47164,-2.39123 -3.27222,-7.07602 -3.27539,-8.52148 -0.002,-0.81351 -0.63716,-2.55891 -1.41211,-3.87891 -0.775,-1.32 -1.89128,-3.83964 -2.48047,-5.59961 -1.25926,-3.76169 -3.9629,-8.05905 -8.55469,-13.59961 -1.82328,-2.19999 -3.88381,-5.10779 -4.58008,-6.46094 -2.98598,-5.80308 -8.95791,-13.7352 -13.19922,-17.53125 -6.37258,-5.70357 -9.11635,-7.50358 -17.36914,-11.40039 -4.8281,-2.27977 -7.84754,-3.44183 -9.14648,-3.44726 z M 245.76367,893.8457 v 0.002 c -0.43942,0.003 -0.8759,0.0322 -1.30664,0.0898 -4.93272,0.66021 -15.66673,4.30173 -16.83789,5.71289 -0.52689,0.63489 -1.28217,1.1543 -1.67773,1.1543 -0.39557,0 -2.96062,1.75602 -5.70118,3.90234 -2.74055,2.14636 -6.60398,4.94308 -8.58398,6.21289 -4.53529,2.90858 -13.38645,11.18861 -31.19922,29.18555 -10.39905,10.50656 -14.70244,15.45115 -16.73047,19.22265 -7.84588,14.59182 -17.07346,33.15924 -19.25781,38.75196 -1.35874,3.47892 -3.3273,7.94582 -4.375,9.92582 -1.86997,3.5339 -4.00068,8.8233 -11.60156,28.7988 -3.52836,9.2726 -5.52574,15.0313 -9.26953,26.7031 -0.38747,5.9344 -3.14582,13.0063 -9.11719,20.627 h 0.002 c -0.94558,1.2067 -1.94973,2.3644 -2.97265,3.5058 -0.17719,1.0727 -0.36371,2.1438 -0.58985,3.2071 -0.40818,1.919 -1.10112,3.7658 -1.66015,5.6464 -2.21849,7.4633 -4.35809,15.0489 -8.281254,21.8438 -0.270246,0.7386 -0.531065,1.4846 -0.796875,2.2266 0.05061,1.4025 0.123366,2.8048 0.167968,4.207 0.0189,0.5916 0.173248,1.1993 0.03711,1.7754 -0.174554,0.7396 -0.361663,1.4761 -0.554688,2.2109 l 49.999999,0.016 103,0.029 0.0312,-2.5996 c 0.0883,-7.5424 2.47055,-47.6173 3.53125,-59.4004 0.67334,-7.48 1.61126,-18.6389 2.08399,-24.7988 0.47272,-6.1601 0.99088,-12.6405 1.15234,-14.4004 0.16148,-1.76 0.66115,-7.5208 1.10937,-12.8008 0.44824,-5.28 1.17119,-13.1996 1.60743,-17.59958 0.43624,-4.39978 1.01022,-11.95879 1.27539,-16.79882 0.52566,-9.59444 1.96169,-23.67359 2.5039,-24.55274 0.18694,-0.3032 0.36242,-10.2856 0.38867,-22.18359 0.0416,-18.20167 -0.15112,-22.03562 -1.21679,-24.17188 -0.69663,-1.39643 -1.26758,-3.21696 -1.26758,-4.04687 0,-5.75883 -7.30119,-11.64969 -13.89258,-11.60352 z m 82.85352,8.69922 c -0.1169,0.0178 -0.0205,0.1457 0.17969,0.33399 -8e-5,-10e-4 4e-5,-0.003 0,-0.004 -0.0624,-0.10146 -0.12003,-0.21848 -0.17969,-0.33008 z m 69.83984,0.68555 c -0.0714,0 -0.17106,0.0219 -0.26367,0.0391 0.1192,0.0435 0.23821,0.0875 0.35742,0.13086 0.0456,2e-5 0.0912,10e-6 0.13672,0 0.0253,-0.10438 -0.0443,-0.16992 -0.23047,-0.16992 z m 113.04688,222.44333 c -0.82744,0.2024 -1.63543,0.4144 -2.37696,0.6387 -0.079,0.1927 -0.1577,0.3886 -0.23437,0.5449 -0.17862,0.3642 -0.41339,0.9624 -0.64258,1.5879 0.29747,0.01 0.93153,0.012 1.26367,0.019 0.75513,-1.0195 1.40711,-1.9409 1.99024,-2.791 z m 76.52734,0.9746 c -0.1167,0.2134 -0.48243,0.8956 -0.97461,1.795 0.0465,-7e-4 0.0887,0 0.13477,0 0.23731,-0.4895 0.74718,-1.5461 0.85937,-1.7793 -0.007,-0.01 -0.0129,-0.011 -0.0195,-0.016 z"
       transform="matrix(0.26458333,0,0,0.26458333,0,-1.0583333)"
       inkscape:connector-curvature="0"
       sodipodi:nodetypes="ccccccccccscscccscccccccccccsccsccccccccccccccccssccccccccccscccscccscccscsccsccccscsccccccccccccssccccccccccccccccccccccccccccccccccccsccccsscccsccscccccccccccccccscccccccccccccsscccsccccccsccscccccscccccscccscscccccccccsccsccccccsccscscccccscscsccccccccccccscccscccscccccsccccccccccccccccccccccccccscccsccccccccscccccccccccccccccccscccccccsccccccccscccccccscccccccccsccccscscsccccccccccccccccsccccccsccsccccccccccccccccccsccccccccscccccccccccccccccccccccccc"
       clip-path="url(#clipPath1038)" />
    <path
       style="fill:none;stroke:#000000;stroke-width:1.26499999;stroke-linecap:butt;stroke-linejoin:miter;stroke-miterlimit:4;stroke-dasharray:none;stroke-opacity:1"
       d="m 132.30378,220.28827 c -3.6527,-4.5436 -7.30539,-9.08719 -9.13172,-16.06969 -1.82633,-6.9825 -1.82633,-16.40382 -1.82633,-25.8248"
       id="path947"
       inkscape:connector-curvature="0"
       inkscape:path-effect="#path-effect949"
       inkscape:original-d="m 132.30378,220.28827 c -3.65241,-4.54384 -7.3051,-9.08743 -10.95805,-13.63074 2.6e-4,-9.42145 2.6e-4,-18.84277 0,-28.26375"
       sodipodi:nodetypes="ccc"
       clip-path="url(#clipPath1034)"
       transform="translate(0,-1.0583333)" />
  </g>
</svg>
