<?xml version="1.0" encoding="UTF-8" standalone="no"?>
<!-- Created with Inkscape (http://www.inkscape.org/) -->

<svg
   xmlns:dc="http://purl.org/dc/elements/1.1/"
   xmlns:cc="http://creativecommons.org/ns#"
   xmlns:rdf="http://www.w3.org/1999/02/22-rdf-syntax-ns#"
   xmlns:svg="http://www.w3.org/2000/svg"
   xmlns="http://www.w3.org/2000/svg"
   xmlns:sodipodi="http://sodipodi.sourceforge.net/DTD/sodipodi-0.dtd"
   xmlns:inkscape="http://www.inkscape.org/namespaces/inkscape"
   width="210mm"
   height="297mm"
   viewBox="0 0 210 297"
   version="1.1"
   id="svg430"
   inkscape:version="0.92.3 (2405546, 2018-03-11)"
   sodipodi:docname="satellite4.svg">
  <defs
     id="defs424">
    <inkscape:path-effect
       effect="bspline"
       id="path-effect483"
       is_visible="true"
       weight="33.333333"
       steps="2"
       helper_size="0"
       apply_no_weight="true"
       apply_with_weight="true"
       only_selected="false" />
  </defs>
  <sodipodi:namedview
     id="base"
     pagecolor="#ffffff"
     bordercolor="#666666"
     borderopacity="1.0"
     inkscape:pageopacity="0.0"
     inkscape:pageshadow="2"
     inkscape:zoom="1.979899"
     inkscape:cx="179.25405"
     inkscape:cy="206.73781"
     inkscape:document-units="mm"
     inkscape:current-layer="layer1"
     showgrid="false"
     inkscape:window-width="1920"
     inkscape:window-height="1001"
     inkscape:window-x="-9"
     inkscape:window-y="-9"
     inkscape:window-maximized="1" />
  <metadata
     id="metadata427">
    <rdf:RDF>
      <cc:Work
         rdf:about="">
        <dc:format>image/svg+xml</dc:format>
        <dc:type
           rdf:resource="http://purl.org/dc/dcmitype/StillImage" />
        <dc:title></dc:title>
      </cc:Work>
    </rdf:RDF>
  </metadata>
  <g
     inkscape:label="Layer 1"
     inkscape:groupmode="layer"
     id="layer1">
    <path
       style="fill:#494949;fill-opacity:1;stroke-width:0.26458338"
       d="m 12.612779,297.68694 c -6.0841606,-1.44278 -12.18990562,-15.42537 -12.94220862,-29.6386 -0.38383,-7.25168 1.62653902,-13.57397 5.60703202,-17.63322 1.819027,-1.85502 1.90597,-1.90634 4.630207,-2.73232 1.5270036,-0.463 3.8713556,-1.20428 5.2096716,-1.64731 3.984908,-1.31913 5.615304,-0.43272 7.931761,4.31229 2.331479,4.77578 4.97082,14.72895 4.676225,17.63441 -0.04461,0.43996 0.275839,0.4144 2.156629,-0.17206 1.5875,-0.49498 1.5875,-0.49498 1.783125,-2.03412 0.413644,-3.25448 1.386978,-5.22634 2.922712,-5.92107 2.496532,-1.12938 40.010625,-13.26154 40.571203,-13.12085 0.747519,0.18762 2.574504,2.26212 3.337248,3.78936 0.32572,0.65219 0.719857,1.23478 0.875863,1.29465 0.222007,0.0852 5.826755,-1.77033 8.083985,-2.67629 0.36258,-0.14553 0.447,-0.9652 0.5816,-5.64696 0.29328,-10.20155 2.2626,-14.60547 8.72476,-19.51088 6.586148,-4.99953 13.900528,-7.60463 16.939418,-6.03318 7.37829,3.81539 12.31326,22.48692 10.12911,38.32359 -1.36147,9.8715 -2.67344,13.53201 -6.2382,17.40509 -4.36746,4.74516 -7.74427,6.25394 -13.68549,6.11478 -3.10018,-0.0726 -4.379468,-0.51334 -6.168138,-2.12494 -2.39779,-2.16043 -5.9993,-9.00963 -7.43702,-14.14342 -0.99175,-3.5413 -0.96272,-3.49445 -1.96396,-3.17087 -0.42738,0.13813 -1.82506,0.56213 -3.10598,0.94223 -2.328916,0.69111 -2.328916,0.69111 -2.14996,2.81133 0.222494,2.6361 -0.272126,4.0327 -1.576718,4.45198 -0.452956,0.14559 -4.812152,1.15525 -9.6871,2.24373 -4.874947,1.08848 -12.078229,2.70823 -16.007291,3.59949 -10.73072,2.4341 -11.546946,2.60797 -14.896288,3.17338 -5.069075,0.85571 -5.598829,0.79243 -7.026217,-0.83929 -1.193747,-1.36462 -1.193747,-1.36462 -3.289607,-0.76785 -2.095859,0.59676 -2.095859,0.59676 -2.277723,4.04168 -0.338985,6.42104 -1.533724,11.44792 -3.35596,14.12023 -0.980143,1.43737 -2.887733,2.27398 -7.155156,3.13799 -3.538596,0.71645 -3.83468,0.74021 -5.197533,0.41702 z"
       id="path228"
       inkscape:connector-curvature="0" />
    <path
       style="fill:none;stroke:#000000;stroke-width:0.22055374px;stroke-linecap:butt;stroke-linejoin:miter;stroke-opacity:1"
       d="m 57.133379,253.81489 c -1.496817,-6.01865 -3.900863,-6.93057 -6.509027,-6.0491 -2.608163,0.88146 -5.420295,3.55628 -7.144059,6.5961 -1.723764,3.03982 -2.358744,6.44404 -1.542231,11.18634 0.816513,4.74229 3.084276,10.82119 6.304952,13.8002 3.220676,2.97901 7.393662,2.85743 9.185245,-2.76628 1.791582,-5.62371 1.201936,-16.74861 -0.29488,-22.76726 z"
       id="path481"
       inkscape:connector-curvature="0"
       inkscape:original-d="m 58.040522,248.70813 c -2.403853,-0.91217 -4.807896,-1.8241 -7.21213,-2.73576 -2.812236,2.67485 -5.624366,5.34967 -8.436835,8.02487 -0.634888,3.4045 -1.269868,6.80872 -1.90509,10.21346 2.268357,6.07973 4.536123,12.15863 6.803898,18.23833 4.173317,-0.12185 8.346304,-0.24341 12.519172,-0.36475 -0.589418,-11.12585 -1.179064,-22.25075 -1.769015,-33.37615 z"
       sodipodi:nodetypes="ccccccc"
       inkscape:path-effect="#path-effect483" />
  </g>
</svg>
