<?xml version="1.0" encoding="UTF-8" standalone="no"?>
<!-- Created with Inkscape (http://www.inkscape.org/) -->

<svg
   xmlns:dc="http://purl.org/dc/elements/1.1/"
   xmlns:cc="http://creativecommons.org/ns#"
   xmlns:rdf="http://www.w3.org/1999/02/22-rdf-syntax-ns#"
   xmlns:svg="http://www.w3.org/2000/svg"
   xmlns="http://www.w3.org/2000/svg"
   xmlns:sodipodi="http://sodipodi.sourceforge.net/DTD/sodipodi-0.dtd"
   xmlns:inkscape="http://www.inkscape.org/namespaces/inkscape"
   width="210mm"
   height="297mm"
   viewBox="0 0 210 297"
   version="1.1"
   id="svg8"
   inkscape:version="0.92.3 (2405546, 2018-03-11)"
   sodipodi:docname="satellite2.svg">
  <defs
     id="defs2" />
  <sodipodi:namedview
     id="base"
     pagecolor="#ffffff"
     bordercolor="#666666"
     borderopacity="1.0"
     inkscape:pageopacity="0.0"
     inkscape:pageshadow="2"
     inkscape:zoom="1.4"
     inkscape:cx="216.81602"
     inkscape:cy="541.50921"
     inkscape:document-units="mm"
     inkscape:current-layer="layer1"
     showgrid="false"
     inkscape:window-width="1920"
     inkscape:window-height="1001"
     inkscape:window-x="-9"
     inkscape:window-y="-9"
     inkscape:window-maximized="1" />
  <metadata
     id="metadata5">
    <rdf:RDF>
      <cc:Work
         rdf:about="">
        <dc:format>image/svg+xml</dc:format>
        <dc:type
           rdf:resource="http://purl.org/dc/dcmitype/StillImage" />
        <dc:title></dc:title>
      </cc:Work>
    </rdf:RDF>
  </metadata>
  <g
     inkscape:label="Layer 1"
     inkscape:groupmode="layer"
     id="layer1">
    <path
       style="fill:#b9b9b9;fill-opacity:1;stroke-width:0.26458335"
       d="m 125.95162,186.03563 c 5.69903,-5.89077 3.87496,-29.62891 -2.94437,-38.31744 -1.04598,-1.3327 -2.65804,-2.4879 -3.09496,-2.21786 -0.28087,0.17358 -1.28881,5.34607 -1.54419,7.92433 -0.23575,2.38019 -0.23575,2.38019 0.82367,3.52953 4.1555,4.50818 6.00891,18.67367 3.21391,24.56369 -0.48109,1.01383 -0.22974,1.84211 1.28274,4.22704 0.87359,1.3775 1.1744,1.41614 2.2632,0.29071 z"
       id="path404" />
    <path
       style="fill:#b9b9b9;fill-opacity:1;stroke-width:0.26458335"
       d="m 71.036848,167.52803 c -0.812107,-0.81211 -0.166796,-2.06375 1.064006,-2.06375 0.944329,0 1.479301,0.95602 1.017656,1.81861 -0.336508,0.62877 -1.554586,0.77221 -2.081662,0.24514 z"
       id="path402" />
    <path
       style="fill:#b9b9b9;fill-opacity:1;stroke-width:0.26458335"
       d="m 72.568634,167.18744 c 0.471435,-0.56805 0.122394,-1.24783 -0.588629,-1.14641 -0.678108,0.0967 -0.962347,0.96633 -0.426794,1.30572 0.496017,0.31434 0.641236,0.29156 1.015423,-0.15931 z"
       id="path400" />
    <path
       style="fill:#b9b9b9;fill-opacity:1;stroke-width:0.26458335"
       d="m 77.916014,163.55928 c -0.769281,-0.76929 0.01535,-2.32834 1.171771,-2.32834 0.979255,0 1.448218,1.04877 0.995963,2.22732 -0.192135,0.5007 -1.697887,0.57086 -2.167734,0.10102 z"
       id="path398" />
    <path
       style="fill:#b9b9b9;fill-opacity:1;stroke-width:0.26458335"
       d="m 79.715181,162.68615 c 0,-0.51657 -0.135231,-0.66146 -0.61736,-0.66146 -0.783905,0 -0.94578,0.1683 -0.778214,0.80907 0.214059,0.81856 1.395574,0.69359 1.395574,-0.14761 z"
       id="path396" />
    <path
       style="fill:#b9b9b9;fill-opacity:1;stroke-width:0.26458335"
       d="m 69.035238,158.83049 c -1.436992,-1.13034 -0.666218,-3.1558 1.200914,-3.1558 1.136677,0 1.806112,0.66256 1.806112,1.78757 0,0.88223 -0.99955,1.9166 -1.852083,1.9166 -0.251793,0 -0.771517,-0.24677 -1.154943,-0.54837 z"
       id="path394" />
    <path
       style="fill:#b9b9b9;fill-opacity:1;stroke-width:0.26458335"
       d="m 71.266427,158.02248 c 0.47648,-0.89032 -0.07288,-1.81862 -1.076246,-1.81862 -0.590568,0 -0.881338,0.16733 -1.091226,0.62799 -0.419658,0.92105 0.09831,1.75326 1.091226,1.75326 0.519713,0 0.874355,-0.1854 1.076246,-0.56263 z"
       id="path392" />
    <path
       style="fill:#b9b9b9;fill-opacity:1;stroke-width:0.26458335"
       d="m 72.286496,146.43463 c -1.590728,-1.59073 -0.501335,-4.25369 1.740143,-4.25369 1.344287,0 2.513542,1.16925 2.513542,2.51354 0,2.24148 -2.66296,3.33087 -4.253685,1.74015 z"
       id="path390" />
    <path
       style="fill:#b9b9b9;fill-opacity:1;stroke-width:0.26458335"
       d="m 75.361581,146.02943 c 1.278329,-1.27833 0.48332,-3.16057 -1.334942,-3.16057 -1.136234,0 -1.984375,0.79796 -1.984375,1.86696 0,0.84678 1.119585,1.94304 1.984375,1.94304 0.377032,0 0.977755,-0.29225 1.334942,-0.64943 z"
       id="path48" />
    <path
       style="fill:#a3a3a3;fill-opacity:1;stroke-width:0.26458335"
       d="m 125.82336,186.22167 c 6.56987,-6.09193 3.2607,-35.05449 -4.59953,-40.25615 -1.38389,-0.91582 -1.5294,-0.69072 -2.34257,3.62376 -0.84828,4.50082 -0.82253,6.15075 0.1115,7.14375 4.24729,4.51539 6.20703,18.10343 3.52147,24.41644 -0.6055,1.42337 -0.44898,2.03598 1.17419,4.59545 0.84503,1.33248 1.14084,1.39853 2.13494,0.47675 z"
       id="path380" />
    <path
       style="fill:#a3a3a3;fill-opacity:1;stroke-width:0.26458335"
       d="m 71.036848,167.52803 c -0.812107,-0.81211 -0.166796,-2.06375 1.064006,-2.06375 0.944329,0 1.479301,0.95602 1.017656,1.81861 -0.336508,0.62877 -1.554586,0.77221 -2.081662,0.24514 z"
       id="path378" />
    <path
       style="fill:#a3a3a3;fill-opacity:1;stroke-width:0.26458335"
       d="m 72.568634,167.18744 c 0.470586,-0.56702 0.129077,-1.194 -0.650359,-1.194 -0.525266,0 -0.669761,0.13319 -0.669761,0.61736 0,1.01666 0.700863,1.3228 1.32012,0.57664 z"
       id="path376" />
    <path
       style="fill:#a3a3a3;fill-opacity:1;stroke-width:0.26458335"
       d="m 77.916014,163.55928 c -0.928248,-0.92825 0.216025,-2.61505 1.47388,-2.17269 0.771575,0.27135 0.995998,0.83188 0.74055,1.84965 -0.179736,0.71614 -1.612349,0.92512 -2.21443,0.32304 z"
       id="path374" />
    <path
       style="fill:#a3a3a3;fill-opacity:1;stroke-width:0.26458335"
       d="m 79.715181,162.68615 c 0,-0.5249 -0.133332,-0.66146 -0.645843,-0.66146 -0.747109,0 -1.01119,0.30469 -0.781918,0.90217 0.279046,0.72718 1.427761,0.53351 1.427761,-0.24071 z"
       id="path372" />
    <path
       style="fill:#a3a3a3;fill-opacity:1;stroke-width:0.26458335"
       d="m 69.035238,158.83049 c -1.436992,-1.13034 -0.666218,-3.1558 1.200914,-3.1558 1.136677,0 1.806112,0.66256 1.806112,1.78757 0,0.88223 -0.99955,1.9166 -1.852083,1.9166 -0.251793,0 -0.771517,-0.24677 -1.154943,-0.54837 z"
       id="path370" />
    <path
       style="fill:#a3a3a3;fill-opacity:1;stroke-width:0.26458335"
       d="m 71.266427,158.02248 c 0.50819,-0.94957 -0.08555,-1.87134 -1.139516,-1.7691 -1.01941,0.0989 -1.60062,1.2052 -1.008184,1.91905 0.510498,0.61511 1.785906,0.52606 2.1477,-0.14995 z"
       id="path368" />
    <path
       style="fill:#a3a3a3;fill-opacity:1;stroke-width:0.26458335"
       d="m 72.286496,146.43463 c -1.590728,-1.59073 -0.501335,-4.25369 1.740143,-4.25369 1.344287,0 2.513542,1.16925 2.513542,2.51354 0,2.24148 -2.66296,3.33087 -4.253685,1.74015 z"
       id="path366" />
    <path
       style="fill:#a3a3a3;fill-opacity:1;stroke-width:0.26458335"
       d="m 75.361581,146.02943 c 1.191689,-1.19169 0.336011,-3.31932 -1.334942,-3.31932 -0.88215,0 -1.984375,1.10222 -1.984375,1.98437 0,0.88215 1.102225,1.98438 1.984375,1.98438 0.377032,0 0.977755,-0.29225 1.334942,-0.64943 z"
       id="path46" />
    <path
       style="fill:#8c8c8c;fill-opacity:1;stroke-width:0.26458335"
       d="m 126.59001,185.39147 c 5.05963,-7.66955 2.73995,-30.4385 -3.88407,-38.12424 -1.10271,-1.27946 -2.43745,-2.08917 -2.81744,-1.70918 -0.35179,0.35179 -1.21232,4.77244 -1.50573,7.73515 -0.2489,2.5133 -0.2489,2.5133 0.73717,3.58306 4.18504,4.54023 6.12626,19.04686 3.2842,24.54279 -0.51853,1.00274 -0.25492,1.93533 1.18628,4.19663 1.11083,1.74295 1.73251,1.69648 2.99959,-0.2242 z"
       id="path356" />
    <path
       style="fill:#8c8c8c;fill-opacity:1;stroke-width:0.26458335"
       d="m 71.036848,167.52803 c -0.845003,-0.84501 -0.08607,-2.16523 1.159314,-2.01673 1.416727,0.16893 1.330965,2.33423 -0.09246,2.33423 -0.412147,0 -0.892233,-0.14288 -1.066858,-0.3175 z"
       id="path354" />
    <path
       style="fill:#8c8c8c;fill-opacity:1;stroke-width:0.26458335"
       d="m 72.531318,167.34675 c 0.599307,-0.3798 0.243623,-1.21227 -0.557462,-1.30474 -0.612486,-0.0707 -0.725342,0.0151 -0.725342,0.55122 0,0.96275 0.494398,1.25316 1.282804,0.75352 z"
       id="path352" />
    <path
       style="fill:#8c8c8c;fill-opacity:1;stroke-width:0.26458335"
       d="m 77.872406,163.365 c -0.43384,-0.81064 -0.324784,-1.29476 0.398404,-1.76862 1.330026,-0.87146 2.776223,0.84271 1.656038,1.9629 -0.503098,0.50309 -1.744023,0.38575 -2.054442,-0.19428 z"
       id="path350" />
    <path
       style="fill:#8c8c8c;fill-opacity:1;stroke-width:0.26458335"
       d="m 79.715181,162.68615 c 0,-0.5249 -0.133332,-0.66146 -0.645843,-0.66146 -0.747109,0 -1.01119,0.30469 -0.781918,0.90217 0.279046,0.72718 1.427761,0.53351 1.427761,-0.24071 z"
       id="path348" />
    <path
       style="fill:#8c8c8c;fill-opacity:1;stroke-width:0.26458335"
       d="m 69.035238,158.83049 c -1.385345,-1.08971 -0.646234,-3.1558 1.12894,-3.1558 1.212011,0 1.878086,0.63397 1.878086,1.78757 0,0.88223 -0.99955,1.9166 -1.852083,1.9166 -0.251793,0 -0.771517,-0.24677 -1.154943,-0.54837 z"
       id="path346" />
    <path
       style="fill:#8c8c8c;fill-opacity:1;stroke-width:0.26458335"
       d="m 71.261635,158.17243 c 0.890791,-1.07334 -0.922628,-2.59605 -2.013495,-1.69071 -0.462992,0.38425 -0.497332,1.35193 -0.06338,1.78589 0.449747,0.44975 1.671072,0.39377 2.076871,-0.0952 z"
       id="path344" />
    <path
       style="fill:#8c8c8c;fill-opacity:1;stroke-width:0.26458335"
       d="m 72.286496,146.43463 c -1.590728,-1.59073 -0.501335,-4.25369 1.740143,-4.25369 1.344287,0 2.513542,1.16925 2.513542,2.51354 0,2.24148 -2.66296,3.33087 -4.253685,1.74015 z"
       id="path342" />
    <path
       style="fill:#8c8c8c;fill-opacity:1;stroke-width:0.26458335"
       d="m 75.361581,146.02943 c 1.191689,-1.19169 0.336011,-3.31932 -1.334942,-3.31932 -0.88215,0 -1.984375,1.10222 -1.984375,1.98437 0,0.88215 1.102225,1.98438 1.984375,1.98438 0.377032,0 0.977755,-0.29225 1.334942,-0.64943 z"
       id="path44" />
    <path
       style="fill:#767676;fill-opacity:1;stroke-width:0.26458335"
       d="m 126.68039,185.30539 c 4.31113,-6.82927 3.18343,-25.88637 -2.0874,-35.27517 -1.53979,-2.74281 -3.87028,-5.03076 -4.63983,-4.55516 -0.44896,0.27748 -1.22867,4.37427 -1.73187,9.09968 -0.13771,1.29322 -0.0923,1.45936 0.53292,1.95119 4.17445,3.28362 6.55467,19.27598 3.69266,24.81049 -0.63675,1.23134 -0.36783,2.16524 1.38709,4.8171 0.64441,0.97377 0.66716,0.98328 1.42054,0.59369 0.42111,-0.21776 1.06276,-0.86658 1.42589,-1.44182 z"
       id="path332" />
    <path
       style="fill:#767676;fill-opacity:1;stroke-width:0.26458335"
       d="m 70.97081,167.43284 c -0.577289,-0.69559 -0.01,-1.83627 0.913263,-1.83627 0.946531,0 1.529588,0.80355 1.199882,1.65364 -0.276637,0.71327 -1.579313,0.82586 -2.113145,0.18263 z"
       id="path330" />
    <path
       style="fill:#767676;fill-opacity:1;stroke-width:0.26458335"
       d="m 72.417499,167.42034 c 0.843844,-0.32381 0.322432,-1.61499 -0.636193,-1.57542 -0.42981,0.0177 -0.663027,0.75042 -0.431181,1.3546 0.159187,0.41484 0.420762,0.46895 1.067374,0.22082 z"
       id="path328" />
    <path
       style="fill:#767676;fill-opacity:1;stroke-width:0.26458335"
       d="m 77.857748,163.33762 c -0.620287,-1.15902 0.707773,-2.45737 1.874755,-1.83282 0.580094,0.31045 0.697476,1.55134 0.194345,2.05448 -0.516189,0.51619 -1.744644,0.38458 -2.0691,-0.22166 z"
       id="path326" />
    <path
       style="fill:#767676;fill-opacity:1;stroke-width:0.26458335"
       d="m 79.715181,162.717 c 0,-0.74303 -0.879597,-1.09419 -1.34279,-0.53608 -0.450675,0.54303 -0.09091,1.16668 0.673029,1.16668 0.529283,0 0.669761,-0.13227 0.669761,-0.6306 z"
       id="path324" />
    <path
       style="fill:#767676;fill-opacity:1;stroke-width:0.26458335"
       d="m 69.661014,159.17631 c -2.057442,-0.67954 -1.630968,-3.50162 0.529167,-3.50162 1.16631,0 1.852083,0.69239 1.852083,1.86995 0,1.09986 -1.298172,1.98939 -2.38125,1.63167 z"
       id="path322" />
    <path
       style="fill:#767676;fill-opacity:1;stroke-width:0.26458335"
       d="m 71.467261,157.54804 c 0.118481,-0.79423 -0.404021,-1.34418 -1.27708,-1.34418 -1.420225,0 -1.805503,1.66569 -0.53164,2.29848 0.809021,0.40187 1.674532,-0.0548 1.80872,-0.9543 z"
       id="path320" />
    <path
       style="fill:#767676;fill-opacity:1;stroke-width:0.26458335"
       d="m 72.286496,146.43463 c -1.590728,-1.59073 -0.501335,-4.25369 1.740143,-4.25369 1.344287,0 2.513542,1.16925 2.513542,2.51354 0,2.24148 -2.66296,3.33087 -4.253685,1.74015 z"
       id="path318" />
    <path
       style="fill:#767676;fill-opacity:1;stroke-width:0.26458335"
       d="m 75.361581,146.02943 c 1.191689,-1.19169 0.336011,-3.31932 -1.334942,-3.31932 -0.88215,0 -1.984375,1.10222 -1.984375,1.98437 0,0.88215 1.102225,1.98438 1.984375,1.98438 0.377032,0 0.977755,-0.29225 1.334942,-0.64943 z"
       id="path42" />
    <path
       style="fill:#606060;fill-opacity:1;stroke-width:0.26458335"
       d="m 29.973515,214.95618 c 1.236927,-0.26957 2.010834,-0.49681 1.719792,-0.50496 -0.291042,-0.008 -1.541198,0.20574 -2.778125,0.47532 -1.236927,0.26958 -2.010833,0.49681 -1.719792,0.50497 0.291042,0.008 1.541198,-0.20575 2.778125,-0.47533 z"
       id="path312" />
    <path
       style="fill:#606060;fill-opacity:1;stroke-width:0.26458335"
       d="m 29.312057,214.14327 c 2.252168,-0.39678 2.15687,-0.31294 1.447035,-1.27304 -0.497625,-0.67308 -0.686826,-0.75731 -1.280067,-0.56992 -0.382873,0.12094 -1.618869,0.41558 -2.746655,0.65477 -2.198429,0.46625 -2.381787,0.62828 -1.455209,1.28595 0.626716,0.44483 1.007417,0.43561 4.034896,-0.0978 z"
       id="path310" />
    <path
       style="fill:#606060;fill-opacity:1;stroke-width:0.26458335"
       d="m 33.192399,213.35524 c -3.330898,-2.41289 -7.042361,-12.73396 -7.855696,-21.84561 -0.09014,-1.00979 -0.214341,-2.19316 -0.276013,-2.62973 -0.978838,-6.92908 0.239308,-18.84775 2.27979,-22.30611 0.284506,-0.4822 0.395751,-0.80161 0.247211,-0.70981 -0.471617,0.29148 -1.528109,2.6201 -1.987955,4.38169 -3.683485,14.11073 0.455822,39.23242 7.151904,43.40531 1.285,0.80079 1.632554,0.56759 0.440759,-0.29574 z"
       id="path308" />
    <path
       style="fill:#606060;fill-opacity:1;stroke-width:0.26458335"
       d="m 36.590948,212.95551 c 1.456693,-0.75328 2.719787,-3.73689 3.583691,-8.46519 0.473731,-2.59281 0.824341,-9.12974 0.489374,-9.12407 -0.688848,0.0117 -0.894721,0.62139 -1.162484,3.44296 -0.867299,9.13923 -2.770672,11.63143 -6.125467,8.02044 -4.928721,-5.3051 -6.761522,-29.01106 -2.576764,-33.32863 0.803275,-0.82877 0.803275,-0.82877 0.205841,-4.4989 -0.658757,-4.04687 -0.736282,-4.24369 -1.508736,-3.83029 -2.649008,1.41771 -4.633593,13.2236 -3.740737,22.25286 0.122314,1.23693 0.287787,2.96334 0.36772,3.83646 0.757756,8.27719 3.795353,17.51574 6.763774,20.57136 1.605814,1.65298 2.282288,1.85809 3.703788,1.123 z"
       id="path306" />
    <path
       style="fill:#606060;fill-opacity:1;stroke-width:0.26458335"
       d="m 115.70722,196.77541 c -2.55328,-0.89349 -4.74259,-3.43541 -7.28266,-8.4556 -3.70557,-7.32368 -5.30307,-15.17117 -5.22794,-25.68164 0.0497,-6.95124 0.31164,-8.69286 2.02232,-13.44577 0.10475,-0.29104 -0.10556,0.0156 -0.46737,0.68133 -2.17514,4.00257 -2.99166,12.77879 -2.03163,21.8366 1.26988,11.98116 6.66749,23.53735 11.73324,25.12066 1.65066,0.51592 2.74816,0.46728 1.25404,-0.0556 z"
       id="path292" />
    <path
       style="fill:#606060;fill-opacity:1;stroke-width:0.26458335"
       d="m 122.70998,193.73541 c 0.7276,-0.2938 1.36541,-0.57664 1.41735,-0.62852 0.0519,-0.0519 -0.41072,-0.6808 -1.02814,-1.39758 l -1.12259,-1.30324 -3.97016,1.83215 c -2.71666,1.25368 -4.05597,1.74634 -4.24192,1.56039 -0.26131,-0.26131 0.55289,-0.69064 6.10485,-3.21906 l 1.65731,-0.75476 -1.26996,-2.45682 c -7.49279,-14.49534 -7.42221,-39.64387 0.1378,-49.09424 0.90323,-1.12909 0.90323,-1.12909 -0.50732,-0.58889 -3.31567,1.26982 -7.48954,4.05541 -10.1063,6.74482 -2.30822,2.3723 -3.75016,4.985 -4.72101,8.55413 -0.72034,2.64818 -0.93887,14.67631 -0.34452,18.96278 1.68653,12.16338 6.8252,22.61397 11.76976,23.93635 0.45495,0.12166 1.31205,-0.0999 2.77984,-0.71871 1.16715,-0.49204 2.7174,-1.135 3.44501,-1.4288 z"
       id="path288" />
    <path
       style="fill:#606060;fill-opacity:1;stroke-width:0.26458335"
       d="m 123.96682,195.17833 c 2.84435,-0.98604 2.84435,-0.98604 1.95124,-1.34227 -0.84618,-0.3375 -1.04433,-0.29165 -3.77039,0.87231 -1.5825,0.6757 -2.92689,1.27782 -2.98752,1.33806 -0.47268,0.46957 2.49306,-0.0661 4.80667,-0.8681 z"
       id="path286" />
    <path
       style="fill:#606060;fill-opacity:1;stroke-width:0.26458335"
       d="m 49.240785,194.63459 c -0.862329,-0.90209 -1.540187,-1.91334 -1.540187,-2.29771 0,-0.5283 0.783506,0.0679 1.455209,1.10736 0.73424,1.13622 2.143979,2.24542 2.558113,2.01275 0.09728,-0.0546 1.223769,-0.28192 2.503321,-0.50506 1.795848,-0.31317 9.792017,-1.99511 12.533357,-2.63631 0.218281,-0.051 1.5875,-0.35143 3.042708,-0.6675 2.85265,-0.61959 3.908407,-0.86328 5.55625,-1.28247 0.582083,-0.14808 1.091203,-0.26187 1.131377,-0.25288 0.08776,0.0196 3.174383,-0.66004 6.806123,-1.49871 1.455208,-0.33606 3.598333,-0.81271 4.7625,-1.05923 1.164166,-0.24653 2.427287,-0.56274 2.806935,-0.70269 0.379648,-0.13996 1.058132,-0.26492 1.507744,-0.27771 0.817475,-0.0232 0.817475,-0.0232 -0.332449,-1.37243 -2.675146,-3.1387 -5.702022,-12.00589 -5.702022,-16.70401 0,-1.44786 -0.08626,-1.93078 -0.330729,-1.85146 -28.363965,9.20317 -38.311721,12.62833 -38.662495,13.31207 -2.244241,4.37453 -1.380128,13.2521 1.485267,15.25911 1.134957,0.79495 1.393002,0.43581 0.418978,-0.58312 z"
       id="path282" />
    <path
       style="fill:#606060;fill-opacity:1;stroke-width:0.26458335"
       d="m 56.167265,192.71636 c 0,-0.35278 0.17639,-0.52917 0.529166,-0.52917 0.599734,0 0.678125,0.27438 0.211667,0.74084 -0.466458,0.46646 -0.740833,0.38806 -0.740833,-0.21167 z"
       id="path280" />
    <path
       style="fill:#606060;fill-opacity:1;stroke-width:0.26458335"
       d="m 83.736847,169.64469 c -0.380621,-0.38062 -0.429209,-1.37027 -0.05595,-1.13958 0.149982,0.0927 0.194337,-0.0135 0.103984,-0.24897 -0.242607,-0.63222 1.135237,-0.53787 1.477238,0.10116 0.577045,1.07822 -0.676447,2.13622 -1.525276,1.28739 z"
       id="path278" />
    <path
       style="fill:#606060;fill-opacity:1;stroke-width:0.26458335"
       d="m 128.51805,192.41093 c 1.76824,-0.67667 3.71893,-2.64928 4.73465,-4.78786 0.92198,-1.94121 1.13164,-2.99247 0.27701,-1.389 -2.19015,4.10921 -4.79288,5.35344 -7.54612,3.60739 -9.67555,-6.13605 -12.59501,-41.30011 -4.18627,-50.42252 5.23204,-5.6761 12.21426,4.19667 14.11603,19.95992 0.079,0.65484 0.22715,1.905 0.32922,2.77812 0.10207,0.87313 0.18508,3.9386 0.18448,6.81215 -5.3e-4,2.87356 0.0231,5.19528 0.0528,5.15938 0.17605,-0.21332 0.40011,-4.74019 0.40139,-8.10951 0.004,-11.78934 -3.22345,-22.54506 -8.25437,-27.50437 -6.62105,-6.5268 -13.22741,6.13252 -12.75216,24.4361 0.0605,2.32834 0.15666,4.53099 0.21379,4.8948 0.0571,0.3638 0.17861,1.37583 0.26994,2.24895 0.58623,5.60456 2.2729,11.64765 4.52041,16.19595 1.43921,2.91253 1.48023,2.96393 2.2439,2.8112 0.80558,-0.16112 1.10386,0.25803 0.38101,0.53541 -0.611,0.23446 -0.4892,0.52422 0.72622,1.72761 0.85864,0.85015 1.2636,1.07672 1.71979,0.96222 0.42306,-0.10618 0.59669,-0.0328 0.59669,0.25216 0,0.52668 0.20077,0.50957 1.97162,-0.1681 z"
       id="path272" />
    <path
       style="fill:#606060;fill-opacity:1;stroke-width:0.26458335"
       d="m 129.43072,189.158 c 7.22186,-3.73457 7.85644,-31.68852 1.0201,-44.93645 -1.0238,-1.98399 -3.14754,-4.68644 -3.68287,-4.68644 -0.14223,0 -1.39846,0.79471 -2.79162,1.76603 -2.34531,1.63517 -2.48667,1.78318 -1.90759,1.99739 3.73489,1.38163 7.41685,9.49402 8.97955,19.7845 1.67996,11.06259 0.38238,21.83385 -3.02617,25.12033 -1.27778,1.23203 -0.34729,1.86265 1.4086,0.95464 z"
       id="path270" />
    <path
       style="fill:#606060;fill-opacity:1;stroke-width:0.26458335"
       d="m 127.59944,187.46221 c 6.73911,-7.08427 2.38856,-39.92562 -5.74086,-43.33654 -1.7922,-0.75197 -1.98279,-0.005 -0.23528,0.92173 1.47697,0.78353 3.07895,2.90535 4.52782,5.99708 5.52565,11.79118 5.68618,31.33214 0.29618,36.05313 -0.54226,0.47495 -0.91335,0.98097 -0.82465,1.12448 0.31797,0.5145 1.02193,0.2439 1.97679,-0.75988 z"
       id="path266" />
    <path
       style="fill:#606060;fill-opacity:1;stroke-width:0.26458335"
       d="m 126.83559,185.095 c 4.09907,-6.46034 3.21632,-23.8228 -1.73122,-34.05052 -1.52258,-3.14753 -3.80748,-5.68854 -5.11518,-5.68854 -0.36448,0 -1.0791,3.23124 -1.56068,7.05684 -0.43871,3.48496 -0.43871,3.48496 0.34606,4.1453 4.17966,3.51695 6.49734,19.83443 3.54343,24.94737 -0.54666,0.94623 -0.26328,1.86288 1.35785,4.39228 0.80188,1.25117 0.80188,1.25117 1.58673,0.8453 0.43167,-0.22322 1.13952,-0.96484 1.57301,-1.64803 z"
       id="path260" />
    <path
       style="fill:#606060;fill-opacity:1;stroke-width:0.26458335"
       d="m 95.316289,185.32542 c 0.317344,-0.59296 0.37352,-4.15792 0.06849,-4.34644 -0.112969,-0.0698 -0.722468,0.0111 -1.354439,0.17975 -1.14904,0.3067 -1.14904,0.3067 -2.398424,-1.05206 -1.420299,-1.54464 -1.992326,-3.11617 -1.959007,-5.38198 0.0328,-2.23064 0.514705,-3.66625 1.296546,-3.86248 0.799399,-0.20063 0.810715,-0.44028 0.07851,-1.66254 -2.197446,-3.66815 -3.472449,-4.14562 -3.616047,-1.35414 -0.342709,6.66212 6.06774,20.87429 7.884369,17.47989 z"
       id="path258" />
    <path
       style="fill:#606060;fill-opacity:1;stroke-width:0.26458335"
       d="m 122.01377,179.95021 c 1.94614,-6.17805 0.18128,-18.17482 -3.27926,-22.29114 -0.6673,-0.79375 -0.6673,-0.79375 -0.62989,3.30729 0.0541,5.92476 0.75495,10.85646 2.39717,16.86719 0.86684,3.17273 1.08368,3.4763 1.51198,2.11666 z"
       id="path256" />
    <path
       style="fill:#606060;fill-opacity:1;stroke-width:0.26458335"
       d="m 95.271048,179.62431 c 0.04276,-0.0397 -0.341635,-0.7683 -0.854207,-1.6192 -1.073576,-1.78218 -1.576438,-3.70178 -1.435137,-5.4784 0.05431,-0.68288 0.0643,-1.2416 0.0222,-1.2416 -2.788427,0 -3.037284,5.32311 -0.385252,8.24055 0.580367,0.63845 2.013056,0.69174 2.652398,0.0987 z"
       id="path254" />
    <path
       style="fill:#606060;fill-opacity:1;stroke-width:0.26458335"
       d="m 97.989554,178.79788 c 1.916721,-0.56648 1.954371,-0.60144 1.353881,-1.25683 -1.173575,-1.28084 -1.983687,-3.40908 -2.111925,-5.5482 -0.138742,-2.31432 -0.08232,-2.27992 -2.25208,-1.37333 -0.825405,0.34487 -0.98215,0.5408 -1.011595,1.26445 -0.112358,2.76127 0.334677,4.463 1.701453,6.47694 0.682557,1.00574 0.507424,0.97275 2.320266,0.43697 z"
       id="path252" />
    <path
       style="fill:#606060;fill-opacity:1;stroke-width:0.26458335"
       d="m 102.25204,177.41795 c 0.0987,-0.0988 0.0804,-0.7155 -0.0407,-1.37034 -0.34069,-1.8418 -0.50403,-3.12228 -0.69654,-5.46035 -0.17728,-2.15305 -0.17728,-2.15305 -1.728045,-1.62935 -1.01757,0.34364 -1.562025,0.67454 -1.583541,0.96243 -0.01805,0.2413 -0.06095,0.85713 -0.09537,1.3685 -0.174834,2.59757 1.956226,6.80432 3.281336,6.4774 0.37581,-0.0927 0.76409,-0.24945 0.86285,-0.34829 z"
       id="path250" />
    <path
       style="fill:#606060;fill-opacity:1;stroke-width:0.26458335"
       d="m 136.25856,175.1908 c -0.0633,-0.32912 -0.11747,-0.12215 -0.1204,0.45993 -0.003,0.58209 0.0488,0.85137 0.11506,0.5984 0.0662,-0.25296 0.0686,-0.72921 0.005,-1.05833 z"
       id="path248" />
    <path
       style="fill:#606060;fill-opacity:1;stroke-width:0.26458335"
       d="m 125.13557,139.32631 c 0.42192,-0.29683 0.35116,-0.32393 -0.54531,-0.20891 -1.10952,0.14236 -2.09726,0.90126 -2.71258,2.08415 -0.36572,0.70304 -0.30548,0.68301 1.19396,-0.39688 0.86851,-0.6255 1.79728,-1.29076 2.06393,-1.47836 z"
       id="path246" />
    <path
       style="fill:#606060;fill-opacity:1;stroke-width:0.26458335"
       d="m 70.97081,167.43284 c -0.496503,-0.59825 -0.01651,-1.81159 0.760614,-1.92273 0.820071,-0.11728 1.369174,0.39653 1.369174,1.28117 0,1.05387 -1.430078,1.48466 -2.129788,0.64156 z"
       id="path244" />
    <path
       style="fill:#606060;fill-opacity:1;stroke-width:0.26458335"
       d="m 72.703723,166.6549 c 0,-0.66063 -0.106098,-0.79375 -0.632622,-0.79375 -0.846941,0 -1.311134,0.73425 -0.830397,1.31351 0.595603,0.71766 1.463019,0.40949 1.463019,-0.51976 z"
       id="path242" />
    <path
       style="fill:#606060;fill-opacity:1;stroke-width:0.26458335"
       d="m 77.853456,163.32959 c -0.513146,-0.95882 0.05453,-1.83406 1.189554,-1.83406 1.688951,0 1.629108,2.16112 -0.06454,2.33055 -0.617894,0.0618 -0.89064,-0.0585 -1.125016,-0.49649 z"
       id="path240" />
    <path
       style="fill:#606060;fill-opacity:1;stroke-width:0.26458335"
       d="m 79.715181,162.67785 c 0,-0.81949 -0.687197,-1.13769 -1.247323,-0.57756 -0.560123,0.56012 -0.241924,1.24732 0.577562,1.24732 0.540237,0 0.669761,-0.12952 0.669761,-0.66976 z"
       id="path238" />
    <path
       style="fill:#606060;fill-opacity:1;stroke-width:0.26458335"
       d="m 68.749975,158.52624 c -0.561795,-0.80208 -0.517049,-1.68804 0.117289,-2.32238 1.092682,-1.09268 3.175,-0.31182 3.175,1.19062 0,1.55689 -2.413418,2.38652 -3.292289,1.13176 z"
       id="path236" />
    <path
       style="fill:#606060;fill-opacity:1;stroke-width:0.26458335"
       d="m 71.029244,158.41181 c 0.960741,-0.86946 0.452091,-2.20795 -0.839063,-2.20795 -1.345586,0 -1.828485,1.46796 -0.734877,2.23396 0.742944,0.52037 0.974418,0.51655 1.57394,-0.026 z"
       id="path234" />
    <path
       style="fill:#606060;fill-opacity:1;stroke-width:0.26458335"
       d="m 72.286496,146.43463 c -0.873757,-0.87376 -0.982694,-1.75857 -0.36385,-2.95528 0.820743,-1.58714 3.173714,-1.67872 4.099999,-0.15957 1.613615,2.6464 -1.559308,5.29169 -3.736149,3.11485 z"
       id="path232" />
    <path
       style="fill:#606060;fill-opacity:1;stroke-width:0.26458335"
       d="m 75.462644,145.98172 c 1.582838,-2.01225 -0.96748,-4.42565 -2.770947,-2.62218 -1.241279,1.24128 -0.405548,3.31932 1.334942,3.31932 0.64379,0 1.038281,-0.19152 1.436005,-0.69714 z"
       id="path40" />
    <path
       style="fill:#494949;fill-opacity:1;stroke-width:0.26458335"
       d="m 30.37039,214.92747 c 2.152026,-0.46176 2.228435,-0.49749 0.79375,-0.37118 -1.79901,0.15839 -4.847092,0.84875 -3.836458,0.86893 0.363802,0.007 1.733021,-0.21673 3.042708,-0.49775 z"
       id="path226" />
    <path
       style="fill:#494949;fill-opacity:1;stroke-width:0.26458335"
       d="m 28.035101,214.41163 c 0.702326,-0.14583 1.782911,-0.35418 2.4013,-0.46302 1.124344,-0.19787 1.124344,-0.19787 0.396875,-1.03019 -0.727469,-0.83231 -0.727469,-0.83231 -3.582,-0.13229 -2.854534,0.70002 -2.854534,0.70002 -2.256309,1.29534 0.665999,0.66275 1.173118,0.71783 3.040134,0.33016 z"
       id="path224" />
    <path
       style="fill:#494949;fill-opacity:1;stroke-width:0.26458335"
       d="m 33.677682,213.61845 c -0.363802,-0.28457 -0.747128,-0.52005 -0.851834,-0.52329 -0.256143,-0.008 -2.647,-3.60777 -3.166935,-4.76838 -5.139185,-11.47178 -6.448963,-30.43952 -2.79535,-40.48125 0.291209,-0.80037 0.633828,-1.56832 0.761376,-1.70657 0.12755,-0.13824 0.23191,-0.36266 0.23191,-0.4987 0,-0.41415 -1.046967,1.0551 -1.4653,2.05631 -2.845602,6.81049 -2.947227,21.32233 -0.228944,32.69271 1.748428,7.31353 5.30475,13.77442 7.569888,13.75245 0.606647,-0.006 0.606647,-0.006 -0.05481,-0.52328 z"
       id="path222" />
    <path
       style="fill:#494949;fill-opacity:1;stroke-width:0.26458335"
       d="m 115.6224,196.7594 c -4.27632,-1.42553 -9.73223,-11.59732 -11.41059,-21.27344 -0.80716,-4.65348 -1.01675,-8.11608 -0.8676,-14.33362 0.16156,-6.73518 0.46493,-8.71107 1.76513,-11.49687 1.04401,-2.2369 0.76773,-2.10254 -0.3855,0.18746 -3.96298,7.86943 -3.16086,25.19651 1.69691,36.65577 3.07426,7.25205 6.1516,10.64808 9.67464,10.67656 0.67783,0.005 0.60875,-0.0553 -0.47299,-0.41586 z"
       id="path206" />
    <path
       style="fill:#494949;fill-opacity:1;stroke-width:0.26458335"
       d="m 123.67956,195.34282 c 3.61072,-1.33134 3.38391,-1.17914 2.29347,-1.53902 -0.89865,-0.29658 -1.15339,-0.23625 -3.83264,0.90773 -1.5785,0.67398 -2.91961,1.27471 -2.98024,1.33495 -0.45878,0.45576 2.71517,-0.0384 4.51941,-0.70366 z"
       id="path200" />
    <path
       style="fill:#494949;fill-opacity:1;stroke-width:0.26458335"
       d="m 83.736847,169.64474 c -0.741627,-0.74162 -0.02016,-1.99238 0.968278,-1.67866 0.713282,0.22639 0.864761,0.77173 0.399052,1.43662 -0.441259,0.62999 -0.898453,0.71092 -1.36733,0.24204 z"
       id="path194" />
    <path
       style="fill:#494949;fill-opacity:1;stroke-width:0.26458335"
       d="m 84.47363,168.82215 c -0.0024,-0.18934 -0.106423,-0.15671 -0.260533,0.0818 -0.215881,0.33405 -0.257122,0.3187 -0.260532,-0.097 -0.003,-0.36445 0.134723,-0.45759 0.525481,-0.35541 0.291243,0.0762 0.462809,0.0305 0.381259,-0.10143 -0.405177,-0.65559 -1.351378,-0.0219 -1.068398,0.71557 0.169619,0.44202 0.689152,0.25673 0.682723,-0.24349 z"
       id="path192" />
    <path
       style="fill:#494949;fill-opacity:1;stroke-width:0.26458335"
       d="m 130.22759,188.69725 c 7.73863,-6.22036 6.23275,-39.12474 -2.19846,-48.03766 -1.4373,-1.51942 -0.89016,-1.69767 -5.94682,1.9374 -0.62766,0.45121 -0.62766,0.45121 0.1854,0.79307 8.76373,3.68488 13.0468,37.90125 5.62599,44.94466 -1.40788,1.33627 0.71267,1.66567 2.33389,0.36253 z"
       id="path184" />
    <path
       style="fill:#494949;fill-opacity:1;stroke-width:0.26458335"
       d="m 127.30637,187.80944 c 3.84996,-3.23953 4.85061,-16.73802 2.14679,-28.95973 -1.86114,-8.41266 -5.65711,-15.08125 -8.58473,-15.08125 -0.70864,0 -0.4406,0.71581 0.39814,1.06322 1.26192,0.52271 3.32168,3.05575 4.61336,5.67341 5.70357,11.55855 6.0004,31.82018 0.53644,36.61759 -1.48368,1.30269 -0.62732,1.9635 0.89,0.68676 z"
       id="path178" />
    <path
       style="fill:#494949;fill-opacity:1;stroke-width:0.26458335"
       d="m 125.67842,186.52056 c 5.17941,-4.35819 4.93252,-24.15275 -0.43919,-35.21147 -1.66389,-3.42545 -3.9028,-5.95313 -5.27303,-5.95313 -0.41995,0 -1.39785,4.83184 -1.77856,8.78794 -0.16633,1.72851 -0.15012,1.79401 0.60038,2.42551 4.1776,3.51522 6.37436,19.01334 3.52568,24.87363 -0.54552,1.12223 -0.31192,1.86039 1.49403,4.7212 0.74033,1.17276 0.87086,1.19762 1.87069,0.35632 z"
       id="path174" />
    <path
       style="fill:#494949;fill-opacity:1;stroke-width:0.26458335"
       d="m 95.349389,185.25061 c 0.365233,-0.88175 0.386876,-3.87106 0.03061,-4.22733 -0.111443,-0.11144 -0.654217,-0.0779 -1.206164,0.0745 -2.917053,0.80543 -5.358472,-4.49344 -4.145611,-8.99767 0.243059,-0.90265 0.432498,-1.1252 1.065535,-1.25181 0.769917,-0.15398 0.769917,-0.15398 0.143137,-1.37992 -0.948991,-1.85615 -2.481032,-3.51885 -3.153891,-3.42286 -1.803771,0.25733 -0.128929,9.27217 2.816812,15.16152 2.190329,4.37907 3.730765,5.77896 4.449575,4.0436 z"
       id="path172" />
    <path
       style="fill:#494949;fill-opacity:1;stroke-width:0.26458335"
       d="m 134.99045,182.79451 c -0.0146,-0.52917 -0.0146,-0.52917 -0.24193,0 -0.33991,0.791 -0.33991,1.452 0,0.92604 0.14106,-0.21828 0.24993,-0.635 0.24193,-0.92604 z"
       id="path170" />
    <path
       style="fill:#494949;fill-opacity:1;stroke-width:0.26458335"
       d="m 94.857732,179.83346 c 0.722762,-0.14587 0.722762,-0.14587 0.229417,-0.84137 -1.535615,-2.16485 -2.296996,-4.56828 -2.073978,-6.54687 0.142867,-1.26752 0.249115,-1.20851 -1.360234,-0.75539 -0.890762,0.25081 -1.161846,4.09696 -0.414972,5.88765 0.542369,1.30037 1.966124,2.76239 2.491816,2.55878 0.222856,-0.0863 0.730433,-0.22258 1.127951,-0.3028 z"
       id="path166" />
    <path
       style="fill:#494949;fill-opacity:1;stroke-width:0.26458335"
       d="m 98.21276,178.7733 c 0.813155,-0.24713 1.511395,-0.46858 1.551655,-0.49211 0.0403,-0.0235 -0.34481,-0.66392 -0.85568,-1.42308 -1.12817,-1.67645 -1.731054,-3.59803 -1.731054,-5.51739 0,-1.59495 -0.106551,-1.62926 -2.262471,-0.72845 -1.619311,0.67659 -1.358043,4.62845 0.486127,7.35308 0.971751,1.43569 0.855681,1.40233 2.811423,0.80795 z"
       id="path164" />
    <path
       style="fill:#494949;fill-opacity:1;stroke-width:0.26458335"
       d="m 102.40658,177.52152 c 0.0594,-0.0595 -0.0744,-1.21908 -0.29741,-2.57694 -0.22303,-1.35785 -0.48534,-3.39156 -0.58292,-4.51935 -0.0976,-1.12778 -0.21235,-2.05052 -0.25506,-2.05052 -0.0427,0 -0.738,0.2527 -1.545065,0.56154 -1.410871,0.53991 -1.474032,0.6058 -1.639683,1.71043 -0.439359,2.92986 1.738933,7.47756 3.420568,7.14123 0.43531,-0.0871 0.84011,-0.20694 0.89957,-0.26639 z"
       id="path162" />
    <path
       style="fill:#494949;fill-opacity:1;stroke-width:0.26458335"
       d="m 125.34258,139.22472 c 0.13987,-0.12173 -0.14428,-0.21876 -0.64067,-0.21876 -0.88013,0 -3.18256,1.92717 -3.18256,2.66385 0,0.22208 2.86091,-1.60757 3.82323,-2.44509 z"
       id="path160" />
    <path
       style="fill:#494949;fill-opacity:1;stroke-width:0.26458335"
       d="m 70.93628,167.18516 c -0.248619,-0.54566 -0.217528,-0.7525 0.178969,-1.19062 0.821997,-0.9083 1.985349,-0.52133 1.985349,0.66038 0,1.27128 -1.643251,1.67386 -2.164318,0.53024 z"
       id="path158" />
    <path
       style="fill:#494949;fill-opacity:1;stroke-width:0.26458335"
       d="m 72.703723,166.65492 c 0,-0.66063 -0.106098,-0.79375 -0.632622,-0.79375 -0.846941,0 -1.311134,0.73425 -0.830397,1.31351 0.595603,0.71766 1.463019,0.40949 1.463019,-0.51976 z"
       id="path156" />
    <path
       style="fill:#494949;fill-opacity:1;stroke-width:0.26458335"
       d="m 77.862889,163.21479 c -0.397386,-1.0452 0.07116,-1.71924 1.195101,-1.71924 1.689042,0 1.598817,2.16312 -0.09727,2.33188 -0.693227,0.069 -0.877858,-0.0341 -1.097835,-0.61264 z"
       id="path154" />
    <path
       style="fill:#494949;fill-opacity:1;stroke-width:0.26458335"
       d="m 79.715181,162.67787 c 0,-0.81949 -0.687197,-1.13769 -1.247323,-0.57756 -0.560123,0.56012 -0.241924,1.24732 0.577562,1.24732 0.540237,0 0.669761,-0.12952 0.669761,-0.66976 z"
       id="path152" />
    <path
       style="fill:#494949;fill-opacity:1;stroke-width:0.26458335"
       d="m 68.867264,158.58511 c -1.097549,-1.09755 -0.273518,-2.91042 1.322917,-2.91042 0.967195,0 1.852083,0.82168 1.852083,1.71979 0,0.89811 -0.884888,1.7198 -1.852083,1.7198 -0.440973,0 -1.028935,-0.23519 -1.322917,-0.52917 z"
       id="path150" />
    <path
       style="fill:#494949;fill-opacity:1;stroke-width:0.26458335"
       d="m 71.029244,158.41181 c 0.960741,-0.86946 0.452091,-2.20795 -0.839063,-2.20795 -1.270603,0 -1.7599,1.19526 -0.885034,2.16198 0.543343,0.60039 1.095214,0.6151 1.724097,0.046 z"
       id="path148" />
    <path
       style="fill:#494949;fill-opacity:1;stroke-width:0.26458335"
       d="m 72.495136,146.67563 c -1.74756,-1.37463 -0.684443,-4.49469 1.531503,-4.49469 0.803349,0 1.910871,0.77129 2.236552,1.55755 0.687372,1.65946 -0.479451,3.46953 -2.236552,3.46953 -0.470074,0 -1.15925,-0.23957 -1.531503,-0.53239 z"
       id="path146" />
    <path
       style="fill:#494949;fill-opacity:1;stroke-width:0.26458335"
       d="m 75.398649,146.10357 c 0.865685,-0.81327 0.826503,-2.12828 -0.08478,-2.84509 -1.989404,-1.56487 -4.423243,0.96979 -2.696323,2.80801 0.737335,0.78486 1.967663,0.80126 2.781098,0.0371 z"
       id="path38" />
    <path
       style="fill:#333333;fill-opacity:1;stroke-width:0.26458335"
       d="m 30.146865,215.03242 c 7.202928,-1.8269 -9.125964,1.11906 -0.846799,0.14683 l 0.846799,-0.14639 z"
       id="path140" />
    <path
       style="fill:#333333;fill-opacity:1;stroke-width:0.26458335"
       d="m 124.29748,195.14842 c 5.94783,-2.12816 -2.81961,-1.31128 -4.41186,0.4701 -3.54034,1.6344 4.34763,-0.15638 4.41186,-0.4701 z"
       id="path116" />
    <path
       style="fill:#333333;fill-opacity:1;stroke-width:0.26458335"
       d="m 70.93628,167.18511 c 0.964607,-5.40749 4.22212,2.77564 0,0 z"
       id="path72" />
    <path
       style="fill:#333333;fill-opacity:1;stroke-width:0.26458335"
       d="m 72.703723,166.65487 c -2.141587,-3.44408 -1.905058,3.48252 0,0 z"
       id="path70" />
    <path
       style="fill:#333333;fill-opacity:1;stroke-width:0.26458335"
       d="m 78.240674,163.6807 c -2.232651,-3.52395 4.637475,-1.57865 0.918651,0.13229 l -0.918654,-0.13229 z"
       id="path68" />
    <path
       style="fill:#333333;fill-opacity:1;stroke-width:0.26458335"
       d="m 79.663349,162.58617 c -2.40706,-3.17697 -1.187752,3.3699 0,0 z"
       id="path66" />
    <path
       style="fill:#333333;fill-opacity:1;stroke-width:0.26458335"
       d="m 68.867264,158.58511 c -2.56967,-4.53643 6.276916,-2.5051 2.02034,0.38675 -0.675871,0.31209 -1.483253,0.0805 -2.02034,-0.38675 z"
       id="path64" />
    <path
       style="fill:#333333;fill-opacity:1;stroke-width:0.26458335"
       d="m 71.029244,158.41181 c 1.96291,-4.38724 -5.206506,-0.4868 -0.458293,0.31736 l 0.458293,-0.31733 z"
       id="path62" />
    <path
       style="fill:#333333;fill-opacity:1;stroke-width:0.26458335"
       d="m 73.100598,147.03245 c -5.553778,-3.61507 4.90898,-7.38875 3.103089,-1.27173 -0.522976,1.12844 -1.926893,1.78102 -3.103089,1.27173 z"
       id="path60" />
    <path
       style="fill:#333333;fill-opacity:1;stroke-width:0.26458335"
       d="m 75.398649,146.10357 c 3.040412,-4.26542 -5.978223,-3.93494 -2.631969,0.0995 0.745297,0.62894 1.938078,0.59594 2.631969,-0.0995 z"
       id="path36" />
  </g>
</svg>
