<?xml version="1.0" encoding="UTF-8" standalone="no"?>
<!-- Created with Inkscape (http://www.inkscape.org/) -->

<svg
   xmlns:dc="http://purl.org/dc/elements/1.1/"
   xmlns:cc="http://creativecommons.org/ns#"
   xmlns:rdf="http://www.w3.org/1999/02/22-rdf-syntax-ns#"
   xmlns:svg="http://www.w3.org/2000/svg"
   xmlns="http://www.w3.org/2000/svg"
   xmlns:sodipodi="http://sodipodi.sourceforge.net/DTD/sodipodi-0.dtd"
   xmlns:inkscape="http://www.inkscape.org/namespaces/inkscape"
   width="210mm"
   height="297mm"
   viewBox="0 0 210 297"
   version="1.1"
   id="svg8"
   inkscape:version="0.92.3 (2405546, 2018-03-11)"
   sodipodi:docname="satellite6.svg">
  <defs
     id="defs2">
    <inkscape:path-effect
       effect="bspline"
       id="path-effect695"
       is_visible="true"
       weight="33.333333"
       steps="2"
       helper_size="0"
       apply_no_weight="true"
       apply_with_weight="true"
       only_selected="false" />
    <inkscape:path-effect
       effect="bspline"
       id="path-effect671"
       is_visible="true"
       weight="33.333333"
       steps="2"
       helper_size="0"
       apply_no_weight="true"
       apply_with_weight="true"
       only_selected="false" />
    <inkscape:path-effect
       effect="bspline"
       id="path-effect641"
       is_visible="true"
       weight="33.333333"
       steps="2"
       helper_size="0"
       apply_no_weight="true"
       apply_with_weight="true"
       only_selected="false" />
    <inkscape:path-effect
       effect="bspline"
       id="path-effect637"
       is_visible="true"
       weight="33.333333"
       steps="2"
       helper_size="0"
       apply_no_weight="true"
       apply_with_weight="true"
       only_selected="false" />
    <inkscape:path-effect
       effect="bspline"
       id="path-effect607"
       is_visible="true"
       weight="33.333333"
       steps="2"
       helper_size="0"
       apply_no_weight="true"
       apply_with_weight="true"
       only_selected="false" />
    <inkscape:path-effect
       effect="bspline"
       id="path-effect483"
       is_visible="true"
       weight="33.333333"
       steps="2"
       helper_size="0"
       apply_no_weight="true"
       apply_with_weight="true"
       only_selected="false" />
  </defs>
  <sodipodi:namedview
     id="base"
     pagecolor="#ffffff"
     bordercolor="#666666"
     borderopacity="1.0"
     inkscape:pageopacity="0.0"
     inkscape:pageshadow="2"
     inkscape:zoom="1.4"
     inkscape:cx="216.81602"
     inkscape:cy="397.80534"
     inkscape:document-units="mm"
     inkscape:current-layer="layer1"
     showgrid="false"
     inkscape:window-width="1920"
     inkscape:window-height="1001"
     inkscape:window-x="-9"
     inkscape:window-y="-9"
     inkscape:window-maximized="1" />
  <metadata
     id="metadata5">
    <rdf:RDF>
      <cc:Work
         rdf:about="">
        <dc:format>image/svg+xml</dc:format>
        <dc:type
           rdf:resource="http://purl.org/dc/dcmitype/StillImage" />
        <dc:title></dc:title>
      </cc:Work>
    </rdf:RDF>
  </metadata>
  <g
     inkscape:label="Layer 1"
     inkscape:groupmode="layer"
     id="layer1">
    <path
       style="fill:#1a1a1a;fill-opacity:1;stroke-width:0.26458335"
       d="m 71.036848,167.52803 c -0.812107,-0.81211 -0.166796,-2.06375 1.064006,-2.06375 0.944329,0 1.479301,0.95602 1.017656,1.81861 -0.336508,0.62877 -1.554586,0.77221 -2.081662,0.24514 z"
       id="path402" />
    <path
       style="fill:#333333;fill-opacity:1;stroke-width:0.26458335"
       d="m 77.916014,163.55928 c -0.769281,-0.76929 0.01535,-2.32834 1.171771,-2.32834 0.979255,0 1.448218,1.04877 0.995963,2.22732 -0.192135,0.5007 -1.697887,0.57086 -2.167734,0.10102 z"
       id="path398" />
    <path
       style="fill:#4d4d4d;fill-opacity:1;stroke-width:0.26458335"
       d="m 111.17958,223.46442 c -1.43699,-1.13034 -0.66621,-3.1558 1.20092,-3.1558 1.13667,0 1.80611,0.66256 1.80611,1.78757 0,0.88223 -0.99955,1.9166 -1.85208,1.9166 -0.2518,0 -0.77152,-0.24677 -1.15495,-0.54837 z"
       id="path394"
       inkscape:connector-curvature="0" />
    <path
       style="fill:#333333;fill-opacity:1;stroke-width:0.26458335"
       d="m 91.752271,189.9019 c -1.590728,-1.59073 -0.501335,-4.25369 1.740143,-4.25369 1.344287,0 2.513542,1.16925 2.513542,2.51354 0,2.24148 -2.66296,3.33087 -4.253685,1.74015 z"
       id="path390"
       inkscape:connector-curvature="0" />
    <path
       style="fill:#606060;fill-opacity:1;stroke-width:0.26458335"
       d="m 31.031849,214.95618 c 1.236927,-0.26957 2.010834,-0.49681 1.719792,-0.50496 -0.291042,-0.008 -1.541198,0.20574 -2.778125,0.47532 -1.236927,0.26958 -2.010833,0.49681 -1.719792,0.50497 0.291042,0.008 1.541198,-0.20575 2.778125,-0.47533 z"
       id="path312"
       inkscape:connector-curvature="0" />
    <g
       id="g479"
       transform="translate(-3.513431,0.8568)">
      <path
         id="path404"
         d="m 125.95162,186.03563 c 5.69903,-5.89077 3.87496,-29.62891 -2.94437,-38.31744 -1.04598,-1.3327 -2.65804,-2.4879 -3.09496,-2.21786 -0.28087,0.17358 -1.28881,5.34607 -1.54419,7.92433 -0.23575,2.38019 -0.23575,2.38019 0.82367,3.52953 4.1555,4.50818 6.00891,18.67367 3.21391,24.56369 -0.48109,1.01383 -0.22974,1.84211 1.28274,4.22704 0.87359,1.3775 1.1744,1.41614 2.2632,0.29071 z"
         style="fill:#b9b9b9;fill-opacity:1;stroke-width:0.26458335"
         inkscape:connector-curvature="0" />
      <path
         id="path380"
         d="m 125.82336,186.22167 c 6.56987,-6.09193 3.2607,-35.05449 -4.59953,-40.25615 -1.38389,-0.91582 -1.5294,-0.69072 -2.34257,3.62376 -0.84828,4.50082 -0.82253,6.15075 0.1115,7.14375 4.24729,4.51539 6.20703,18.10343 3.52147,24.41644 -0.6055,1.42337 -0.44898,2.03598 1.17419,4.59545 0.84503,1.33248 1.14084,1.39853 2.13494,0.47675 z"
         style="fill:#a3a3a3;fill-opacity:1;stroke-width:0.26458335"
         inkscape:connector-curvature="0" />
      <path
         id="path356"
         d="m 126.59001,185.39147 c 5.05963,-7.66955 2.73995,-30.4385 -3.88407,-38.12424 -1.10271,-1.27946 -2.43745,-2.08917 -2.81744,-1.70918 -0.35179,0.35179 -1.21232,4.77244 -1.50573,7.73515 -0.2489,2.5133 -0.2489,2.5133 0.73717,3.58306 4.18504,4.54023 6.12626,19.04686 3.2842,24.54279 -0.51853,1.00274 -0.25492,1.93533 1.18628,4.19663 1.11083,1.74295 1.73251,1.69648 2.99959,-0.2242 z"
         style="fill:#8c8c8c;fill-opacity:1;stroke-width:0.26458335"
         inkscape:connector-curvature="0" />
      <path
         id="path332"
         d="m 126.68039,185.30539 c 4.31113,-6.82927 3.18343,-25.88637 -2.0874,-35.27517 -1.53979,-2.74281 -3.87028,-5.03076 -4.63983,-4.55516 -0.44896,0.27748 -1.22867,4.37427 -1.73187,9.09968 -0.13771,1.29322 -0.0923,1.45936 0.53292,1.95119 4.17445,3.28362 6.55467,19.27598 3.69266,24.81049 -0.63675,1.23134 -0.36783,2.16524 1.38709,4.8171 0.64441,0.97377 0.66716,0.98328 1.42054,0.59369 0.42111,-0.21776 1.06276,-0.86658 1.42589,-1.44182 z"
         style="fill:#767676;fill-opacity:1;stroke-width:0.26458335"
         inkscape:connector-curvature="0" />
      <path
         inkscape:connector-curvature="0"
         id="path310"
         d="m 30.370391,214.14327 c 2.252168,-0.39678 2.15687,-0.31294 1.447035,-1.27304 -0.497625,-0.67308 -0.686826,-0.75731 -1.280067,-0.56992 -0.382873,0.12094 -1.618869,0.41558 -2.746655,0.65477 -2.198429,0.46625 -2.381787,0.62828 -1.455209,1.28595 0.626716,0.44483 1.007417,0.43561 4.034896,-0.0978 z"
         style="fill:#606060;fill-opacity:1;stroke-width:0.26458335" />
      <path
         inkscape:connector-curvature="0"
         id="path308"
         d="m 34.250733,213.35524 c -3.330898,-2.41289 -7.042361,-12.73396 -7.855696,-21.84561 -0.09014,-1.00979 -0.214341,-2.19316 -0.276013,-2.62973 -0.978838,-6.92908 0.239308,-18.84775 2.27979,-22.30611 0.284506,-0.4822 0.395751,-0.80161 0.247211,-0.70981 -0.471617,0.29148 -1.528109,2.6201 -1.987955,4.38169 -3.683485,14.11073 0.455822,39.23242 7.151904,43.40531 1.285,0.80079 1.632554,0.56759 0.440759,-0.29574 z"
         style="fill:#606060;fill-opacity:1;stroke-width:0.26458335" />
      <path
         inkscape:connector-curvature="0"
         id="path306"
         d="m 37.649282,212.95551 c 1.456693,-0.75328 2.719787,-3.73689 3.583691,-8.46519 0.473731,-2.59281 0.824341,-9.12974 0.489374,-9.12407 -0.688848,0.0117 -0.894721,0.62139 -1.162484,3.44296 -0.867299,9.13923 -2.770672,11.63143 -6.125467,8.02044 -4.928721,-5.3051 -6.761522,-29.01106 -2.576764,-33.32863 0.803275,-0.82877 0.803275,-0.82877 0.205841,-4.4989 -0.658757,-4.04687 -0.736282,-4.24369 -1.508736,-3.83029 -2.649008,1.41771 -4.633593,13.2236 -3.740737,22.25286 0.122314,1.23693 0.287787,2.96334 0.36772,3.83646 0.757756,8.27719 3.795353,17.51574 6.763774,20.57136 1.605814,1.65298 2.282288,1.85809 3.703788,1.123 z"
         style="fill:#606060;fill-opacity:1;stroke-width:0.26458335" />
      <path
         id="path292"
         d="m 115.70722,196.77541 c -2.55328,-0.89349 -4.74259,-3.43541 -7.28266,-8.4556 -3.70557,-7.32368 -5.30307,-15.17117 -5.22794,-25.68164 0.0497,-6.95124 0.31164,-8.69286 2.02232,-13.44577 0.10475,-0.29104 -0.10556,0.0156 -0.46737,0.68133 -2.17514,4.00257 -2.99166,12.77879 -2.03163,21.8366 1.26988,11.98116 6.66749,23.53735 11.73324,25.12066 1.65066,0.51592 2.74816,0.46728 1.25404,-0.0556 z"
         style="fill:#606060;fill-opacity:1;stroke-width:0.26458335"
         inkscape:connector-curvature="0" />
      <path
         id="path288"
         d="m 122.70998,193.73541 c 0.7276,-0.2938 1.36541,-0.57664 1.41735,-0.62852 0.0519,-0.0519 -0.41072,-0.6808 -1.02814,-1.39758 l -1.12259,-1.30324 -3.97016,1.83215 c -2.71666,1.25368 -4.05597,1.74634 -4.24192,1.56039 -0.26131,-0.26131 0.55289,-0.69064 6.10485,-3.21906 l 1.65731,-0.75476 -1.26996,-2.45682 c -7.49279,-14.49534 -7.42221,-39.64387 0.1378,-49.09424 0.90323,-1.12909 0.90323,-1.12909 -0.50732,-0.58889 -3.31567,1.26982 -7.48954,4.05541 -10.1063,6.74482 -2.30822,2.3723 -3.75016,4.985 -4.72101,8.55413 -0.72034,2.64818 -0.93887,14.67631 -0.34452,18.96278 1.68653,12.16338 6.8252,22.61397 11.76976,23.93635 0.45495,0.12166 1.31205,-0.0999 2.77984,-0.71871 1.16715,-0.49204 2.7174,-1.135 3.44501,-1.4288 z"
         style="fill:#606060;fill-opacity:1;stroke-width:0.26458335"
         inkscape:connector-curvature="0" />
      <path
         id="path286"
         d="m 123.96682,195.17833 c 2.84435,-0.98604 2.84435,-0.98604 1.95124,-1.34227 -0.84618,-0.3375 -1.04433,-0.29165 -3.77039,0.87231 -1.5825,0.6757 -2.92689,1.27782 -2.98752,1.33806 -0.47268,0.46957 2.49306,-0.0661 4.80667,-0.8681 z"
         style="fill:#606060;fill-opacity:1;stroke-width:0.26458335"
         inkscape:connector-curvature="0" />
      <path
         inkscape:connector-curvature="0"
         id="path282"
         d="m 48.673821,194.63459 c -0.862329,-0.90209 -1.540187,-1.91334 -1.540187,-2.29771 0,-0.5283 0.783506,0.0679 1.455209,1.10736 0.73424,1.13622 2.143979,2.24542 2.558113,2.01275 0.09728,-0.0546 1.223769,-0.28192 2.503321,-0.50506 1.795848,-0.31317 9.792016,-1.99511 12.533356,-2.63631 0.218281,-0.051 1.5875,-0.35143 3.042708,-0.6675 2.85265,-0.61959 3.908407,-0.86328 5.55625,-1.28247 0.582083,-0.14808 1.091203,-0.26187 1.131377,-0.25288 0.08776,0.0196 3.174383,-0.66004 6.806123,-1.49871 1.455208,-0.33606 3.598333,-0.81271 4.7625,-1.05923 1.164166,-0.24653 2.427287,-0.56274 2.806935,-0.70269 0.379648,-0.13996 1.058132,-0.26492 1.507744,-0.27771 0.817475,-0.0232 0.817475,-0.0232 -0.332449,-1.37243 -2.675146,-3.1387 -5.702022,-12.00589 -5.702022,-16.70401 0,-1.44786 -0.08626,-1.93078 -0.330729,-1.85146 -28.363965,9.20317 -38.31172,12.62833 -38.662494,13.31207 -2.244241,4.37453 -1.380128,13.2521 1.485267,15.25911 1.134957,0.79495 1.393002,0.43581 0.418978,-0.58312 z"
         style="fill:#606060;fill-opacity:1;stroke-width:0.26458335" />
      <path
         id="path272"
         d="m 128.51805,192.41093 c 1.76824,-0.67667 3.71893,-2.64928 4.73465,-4.78786 0.92198,-1.94121 1.13164,-2.99247 0.27701,-1.389 -2.19015,4.10921 -4.79288,5.35344 -7.54612,3.60739 -9.67555,-6.13605 -12.59501,-41.30011 -4.18627,-50.42252 5.23204,-5.6761 12.21426,4.19667 14.11603,19.95992 0.079,0.65484 0.22715,1.905 0.32922,2.77812 0.10207,0.87313 0.18508,3.9386 0.18448,6.81215 -5.3e-4,2.87356 0.0231,5.19528 0.0528,5.15938 0.17605,-0.21332 0.40011,-4.74019 0.40139,-8.10951 0.004,-11.78934 -3.22345,-22.54506 -8.25437,-27.50437 -6.62105,-6.5268 -13.22741,6.13252 -12.75216,24.4361 0.0605,2.32834 0.15666,4.53099 0.21379,4.8948 0.0571,0.3638 0.17861,1.37583 0.26994,2.24895 0.58623,5.60456 2.2729,11.64765 4.52041,16.19595 1.43921,2.91253 1.48023,2.96393 2.2439,2.8112 0.80558,-0.16112 1.10386,0.25803 0.38101,0.53541 -0.611,0.23446 -0.4892,0.52422 0.72622,1.72761 0.85864,0.85015 1.2636,1.07672 1.71979,0.96222 0.42306,-0.10618 0.59669,-0.0328 0.59669,0.25216 0,0.52668 0.20077,0.50957 1.97162,-0.1681 z"
         style="fill:#606060;fill-opacity:1;stroke-width:0.26458335"
         inkscape:connector-curvature="0" />
      <path
         id="path270"
         d="m 129.43072,189.158 c 7.22186,-3.73457 7.85644,-31.68852 1.0201,-44.93645 -1.0238,-1.98399 -3.14754,-4.68644 -3.68287,-4.68644 -0.14223,0 -1.39846,0.79471 -2.79162,1.76603 -2.34531,1.63517 -2.48667,1.78318 -1.90759,1.99739 3.73489,1.38163 7.41685,9.49402 8.97955,19.7845 1.67996,11.06259 0.38238,21.83385 -3.02617,25.12033 -1.27778,1.23203 -0.34729,1.86265 1.4086,0.95464 z"
         style="fill:#606060;fill-opacity:1;stroke-width:0.26458335"
         inkscape:connector-curvature="0" />
      <path
         id="path266"
         d="m 127.59944,187.46221 c 6.73911,-7.08427 2.38856,-39.92562 -5.74086,-43.33654 -1.7922,-0.75197 -1.98279,-0.005 -0.23528,0.92173 1.47697,0.78353 3.07895,2.90535 4.52782,5.99708 5.52565,11.79118 5.68618,31.33214 0.29618,36.05313 -0.54226,0.47495 -0.91335,0.98097 -0.82465,1.12448 0.31797,0.5145 1.02193,0.2439 1.97679,-0.75988 z"
         style="fill:#606060;fill-opacity:1;stroke-width:0.26458335"
         inkscape:connector-curvature="0" />
      <path
         id="path258"
         d="m 95.316289,185.32542 c 0.317344,-0.59296 0.37352,-4.15792 0.06849,-4.34644 -0.112969,-0.0698 -0.722468,0.0111 -1.354439,0.17975 -1.14904,0.3067 -1.14904,0.3067 -2.398424,-1.05206 -1.420299,-1.54464 -1.992326,-3.11617 -1.959007,-5.38198 0.0328,-2.23064 0.514705,-3.66625 1.296546,-3.86248 0.799399,-0.20063 0.810715,-0.44028 0.07851,-1.66254 -2.197446,-3.66815 -3.472449,-4.14562 -3.616047,-1.35414 -0.342709,6.66212 6.06774,20.87429 7.884369,17.47989 z"
         style="fill:#606060;fill-opacity:1;stroke-width:0.26458335"
         inkscape:connector-curvature="0" />
      <path
         id="path254"
         d="m 95.271048,179.62431 c 0.04276,-0.0397 -0.341635,-0.7683 -0.854207,-1.6192 -1.073576,-1.78218 -1.576438,-3.70178 -1.435137,-5.4784 0.05431,-0.68288 0.0643,-1.2416 0.0222,-1.2416 -2.788427,0 -3.037284,5.32311 -0.385252,8.24055 0.580367,0.63845 2.013056,0.69174 2.652398,0.0987 z"
         style="fill:#606060;fill-opacity:1;stroke-width:0.26458335"
         inkscape:connector-curvature="0" />
      <path
         id="path252"
         d="m 97.989554,178.79788 c 1.916721,-0.56648 1.954371,-0.60144 1.353881,-1.25683 -1.173575,-1.28084 -1.983687,-3.40908 -2.111925,-5.5482 -0.138742,-2.31432 -0.08232,-2.27992 -2.25208,-1.37333 -0.825405,0.34487 -0.98215,0.5408 -1.011595,1.26445 -0.112358,2.76127 0.334677,4.463 1.701453,6.47694 0.682557,1.00574 0.507424,0.97275 2.320266,0.43697 z"
         style="fill:#606060;fill-opacity:1;stroke-width:0.26458335"
         inkscape:connector-curvature="0" />
      <path
         id="path250"
         d="m 102.25204,177.41795 c 0.0987,-0.0988 0.0804,-0.7155 -0.0407,-1.37034 -0.34069,-1.8418 -0.50403,-3.12228 -0.69654,-5.46035 -0.17728,-2.15305 -0.17728,-2.15305 -1.728045,-1.62935 -1.01757,0.34364 -1.562025,0.67454 -1.583541,0.96243 -0.01805,0.2413 -0.06095,0.85713 -0.09537,1.3685 -0.174834,2.59757 1.956226,6.80432 3.281336,6.4774 0.37581,-0.0927 0.76409,-0.24945 0.86285,-0.34829 z"
         style="fill:#606060;fill-opacity:1;stroke-width:0.26458335"
         inkscape:connector-curvature="0" />
      <path
         id="path246"
         d="m 125.13557,139.32631 c 0.42192,-0.29683 0.35116,-0.32393 -0.54531,-0.20891 -1.10952,0.14236 -2.09726,0.90126 -2.71258,2.08415 -0.36572,0.70304 -0.30548,0.68301 1.19396,-0.39688 0.86851,-0.6255 1.79728,-1.29076 2.06393,-1.47836 z"
         style="fill:#606060;fill-opacity:1;stroke-width:0.26458335"
         inkscape:connector-curvature="0" />
      <path
         inkscape:connector-curvature="0"
         id="path226"
         d="m 31.428724,214.92747 c 2.152026,-0.46176 2.228435,-0.49749 0.79375,-0.37118 -1.79901,0.15839 -4.847092,0.84875 -3.836458,0.86893 0.363802,0.007 1.733021,-0.21673 3.042708,-0.49775 z"
         style="fill:#494949;fill-opacity:1;stroke-width:0.26458335" />
      <path
         style="fill:none;stroke:#000000;stroke-width:0.26458332px;stroke-linecap:butt;stroke-linejoin:miter;stroke-opacity:1"
         d="m 74.177814,173.87414 c -1.858376,-4.5041 -5.133996,-7.77973 -8.283844,-9.57519 -3.149848,-1.79547 -6.173261,-2.11041 -9.102845,0.59846 -2.929584,2.70887 -5.763928,8.44054 -5.291522,15.65433 0.472406,7.21379 4.251832,15.90647 8.504291,19.30823 4.252458,3.40177 8.977077,1.51192 11.874789,-1.03951 2.897711,-2.55143 3.968644,-5.76423 4.283584,-10.23663 0.314939,-4.47239 -0.126077,-10.2056 -1.984453,-14.70969 z"
         id="path481"
         inkscape:connector-curvature="0"
         inkscape:path-effect="#path-effect483"
         inkscape:original-d="m 75.595236,172.64584 c -3.27553,-3.27607 -6.551154,-6.55169 -9.827379,-9.82739 -3.023705,-0.31526 -6.047118,-0.6302 -9.07143,-0.94494 -2.834779,5.73282 -5.669125,11.46449 -8.504465,17.19791 3.780365,8.69397 7.559791,17.38665 11.339287,26.08036 4.725047,-1.89018 9.449669,-3.78002 14.174108,-5.66964 1.071197,-3.21306 2.142129,-6.42586 3.212796,-9.63839 -0.440664,-5.73233 -0.881679,-11.46554 -1.322917,-17.19791 z"
         sodipodi:nodetypes="cccccccc" />
      <path
         style="fill:none;stroke:#000000;stroke-width:0.21318278px;stroke-linecap:butt;stroke-linejoin:miter;stroke-opacity:1"
         d="m 71.107626,168.81314 c -4.821767,-0.56692 -13.401972,0.50395 -17.451248,3.37039 -4.049275,2.86643 -3.566226,7.52778 -2.649868,12.56759 0.916358,5.03981 2.265907,10.45725 3.983608,14.48909 1.717701,4.03185 3.803397,6.67762 7.633631,14.64632 3.830233,7.96871 9.405206,21.26098 11.961378,20.91443 2.556171,-0.34655 2.093409,-14.33083 2.209635,-23.08734 0.116226,-8.7565 0.811538,-12.28459 1.11824,-17.73341 0.306703,-5.44881 0.224901,-12.82001 -0.347673,-17.60761 -0.572575,-4.7876 -1.635936,-6.99254 -6.457703,-7.55946 z"
         id="path605"
         inkscape:connector-curvature="0"
         inkscape:path-effect="#path-effect607"
         inkscape:original-d="m 74.866139,167.17534 c -8.580309,1.07065 -17.160514,2.14152 -25.742133,3.2128 0.483305,4.6618 0.966354,9.32315 1.449256,13.98512 1.34983,5.41761 2.699379,10.83505 4.048813,16.25298 2.085977,2.64564 4.171676,5.2914 6.257256,7.9375 5.574969,13.29137 11.149944,26.58364 16.72478,39.87648 -0.462539,-13.98582 -0.925302,-27.9701 -1.388369,-41.95535 0.695363,-3.52773 1.390674,-7.05582 2.085753,-10.58334 -0.08162,-7.37013 -0.163416,-14.74133 -0.245383,-22.1116 -1.063116,-2.20505 -2.126477,-4.40999 -3.189973,-6.61459 z"
         sodipodi:nodetypes="cccccccccc" />
    </g>
    <path
       style="fill:none;stroke:#000000;stroke-width:0.26458332px;stroke-linecap:butt;stroke-linejoin:miter;stroke-opacity:1"
       d="m 21.355655,167.73214 c -1.133843,4.15742 -2.267704,8.31491 -2.364453,14.2425 -0.09675,5.92759 0.843744,13.62372 2.327588,19.42293 1.483845,5.79921 3.510985,9.70082 5.53817,13.6025"
       id="path693"
       inkscape:connector-curvature="0"
       inkscape:path-effect="#path-effect695"
       inkscape:original-d="m 21.355655,167.73214 c -1.133664,4.15747 -2.267525,8.31496 -3.401786,12.47321 0.940876,7.69684 1.881368,15.39297 2.821664,23.08991 2.027419,3.90136 4.05456,7.80296 6.081427,11.70481"
       sodipodi:nodetypes="cccc" />
  </g>
</svg>
