<?xml version="1.0" encoding="UTF-8" standalone="no"?>
<!-- Created with Inkscape (http://www.inkscape.org/) -->

<svg
   xmlns:svg="http://www.w3.org/2000/svg"
   xmlns="http://www.w3.org/2000/svg"
   xmlns:sodipodi="http://sodipodi.sourceforge.net/DTD/sodipodi-0.dtd"
   xmlns:inkscape="http://www.inkscape.org/namespaces/inkscape"
   width="210mm"
   height="297mm"
   viewBox="0 0 210 297"
   version="1.1"
  >
  <defs
     id="defs2" />
  <sodipodi:namedview
     id="base"
     pagecolor="#ffffff"
     bordercolor="#666666"
     borderopacity="1.0"
     
     showgrid="true"
    />

  <g
    
     id="layer1">
    <g
       id="g34"
       transform="translate(-1.5119048,-68.413693)">
     
      
      
      <path
         style="fill:#767676;fill-opacity:1;stroke-width:0.26458335"
         d="m 26.528634,284.00199 c -6.522758,-3.25043 -12.128545,-18.1836 -11.863568,-31.60319 0.09116,-4.61665 0.564087,-6.88676 2.122134,-10.18646 2.381453,-5.04354 4.075419,-6.57075 8.988736,-8.10387 1.903289,-0.59389 4.09007,-1.30542 4.859513,-1.58119 2.4994,-0.89578 3.771516,-0.57379 5.441625,1.37735 2.630532,3.07319 5.112675,10.1204 6.38951,18.14087 0.296568,1.8629 0.578696,2.92016 0.763823,2.86239 0.161454,-0.0504 0.978164,-0.28168 1.814909,-0.51399 1.521354,-0.42238 1.521354,-0.42238 1.521354,-1.61059 0,-1.4966 1.147429,-4.82975 1.92487,-5.59153 0.561539,-0.55022 2.659438,-1.26524 33.688501,-11.48195 3.943866,-1.29857 7.369572,-2.36103 7.612684,-2.36103 0.734057,0 2.683275,2.01452 3.583551,3.70361 0.465534,0.87343 0.909505,1.58806 0.986602,1.58806 0.0771,0 2.034649,-0.66956 4.35011,-1.4879 l 4.209932,-1.48789 0.002,-4.2668 c 0.002,-6.82798 0.86696,-10.95218 3.10257,-14.80175 3.22704,-5.55676 14.24383,-12.3515 20.02635,-12.3515 2.51375,0 3.77733,0.65796 5.70907,2.97278 7.37189,8.83379 9.7154,28.85984 5.28725,45.18139 -1.57276,5.79696 -6.7683,11.61872 -12.09933,13.55764 -1.84223,0.67003 -7.64394,0.82737 -9.52021,0.25819 -3.36988,-1.02229 -7.56339,-7.44191 -9.99994,-15.30835 -0.53452,-1.72573 -1.04945,-3.33318 -1.14429,-3.5721 -0.15506,-0.39065 -0.42571,-0.35816 -2.68598,0.32245 -3.854122,1.16055 -3.719971,1.03575 -3.529936,3.28385 0.163785,1.93759 -0.148326,3.5337 -0.796132,4.07133 -0.291346,0.24179 -2.615861,0.79927 -13.930179,3.34081 -1.527969,0.34323 -4.623594,1.0412 -6.879167,1.55106 -23.702197,5.35769 -25.600485,5.6623 -27.016088,4.33523 -0.349263,-0.32743 -0.878969,-0.9334 -1.177123,-1.34661 -0.542099,-0.7513 -0.542099,-0.7513 -2.710902,-0.15693 -2.168803,0.59437 -2.168803,0.59437 -2.178338,2.47109 -0.03551,6.9877 -1.580351,13.60136 -3.784997,16.20401 -0.877708,1.03616 -3.465208,2.00398 -7.317968,2.7372 -3.580743,0.68144 -4.118025,0.66783 -5.750536,-0.14568 z m 8.900388,-12.35762 c 0.299886,-0.90793 0.663993,-2.48421 0.809125,-3.50286 0.327197,-2.29652 0.330991,-2.51354 0.04396,-2.51354 -0.126717,0 -0.31524,0.86102 -0.418936,1.91338 -0.194934,1.97828 -0.665223,3.43189 -1.357982,4.19738 -0.261239,0.28867 -0.339598,0.6808 -0.226269,1.13234 0.243864,0.97164 0.521965,0.67502 1.150102,-1.2267 z m -0.119801,-16.53056 c -0.836303,-4.28431 -2.671929,-7.74209 -4.110024,-7.74209 -0.698169,0 -0.189823,1.71824 0.838353,2.83368 1.15365,1.25156 2.014096,2.96748 2.729847,5.44391 0.59718,2.06618 0.976497,1.69129 0.541824,-0.5355 z m 92.883069,-1.39473 c 4.31113,-6.82927 3.18343,-25.88637 -2.0874,-35.27517 -1.53979,-2.74281 -3.87028,-5.03076 -4.63983,-4.55516 -0.44896,0.27748 -1.22867,4.37427 -1.73187,9.09968 -0.13771,1.29322 -0.0923,1.45936 0.53292,1.95119 4.17445,3.28362 6.55467,19.27598 3.69266,24.81049 -0.63675,1.23134 -0.36783,2.16524 1.38709,4.8171 0.64441,0.97377 0.66716,0.98328 1.42054,0.59369 0.42111,-0.21776 1.06276,-0.86658 1.42589,-1.44182 z M 72.482715,235.84653 c -0.577289,-0.69559 -0.01,-1.83627 0.913263,-1.83627 0.946531,0 1.529588,0.80355 1.199882,1.65364 -0.276637,0.71327 -1.579313,0.82586 -2.113145,0.18263 z m 1.446689,-0.0125 c 0.843844,-0.32381 0.322432,-1.61499 -0.636193,-1.57542 -0.42981,0.0177 -0.663027,0.75042 -0.431181,1.3546 0.159187,0.41484 0.420762,0.46895 1.067374,0.22082 z m 5.440249,-4.08272 c -0.620287,-1.15902 0.707773,-2.45737 1.874755,-1.83282 0.580094,0.31045 0.697476,1.55134 0.194345,2.05448 -0.516189,0.51619 -1.744644,0.38458 -2.0691,-0.22166 z m 1.857433,-0.62062 c 0,-0.74303 -0.879597,-1.09419 -1.34279,-0.53608 -0.450675,0.54303 -0.09091,1.16668 0.673029,1.16668 0.529283,0 0.669761,-0.13227 0.669761,-0.6306 z M 71.172919,227.59 c -2.057442,-0.67954 -1.630968,-3.50162 0.529167,-3.50162 1.16631,0 1.852083,0.69239 1.852083,1.86995 0,1.09986 -1.298172,1.98939 -2.38125,1.63167 z m 1.806247,-1.62827 c 0.118481,-0.79423 -0.404021,-1.34418 -1.27708,-1.34418 -1.420225,0 -1.805503,1.66569 -0.53164,2.29848 0.809021,0.40187 1.674532,-0.0548 1.80872,-0.9543 z m 0.819235,-11.11341 c -1.590728,-1.59073 -0.501335,-4.25369 1.740143,-4.25369 1.344287,0 2.513542,1.16925 2.513542,2.51354 0,2.24148 -2.66296,3.33087 -4.253685,1.74015 z m 3.075085,-0.4052 c 1.191689,-1.19169 0.336011,-3.31932 -1.334942,-3.31932 -0.88215,0 -1.984375,1.10222 -1.984375,1.98437 0,0.88215 1.102225,1.98438 1.984375,1.98438 0.377032,0 0.977755,-0.29225 1.334942,-0.64943 z"
         id="path42"
         inkscape:connector-curvature="0" />
      
      <path
         style="fill:#494949;fill-opacity:1;stroke-width:0.26458335"
         d="m 27.577562,284.41865 c -6.084161,-1.44278 -12.189907,-15.42537 -12.94221,-29.6386 -0.38383,-7.25168 1.626539,-13.57397 5.607032,-17.63323 1.819028,-1.85502 1.905971,-1.90633 4.630208,-2.73232 1.527004,-0.46299 3.871356,-1.20427 5.209672,-1.6473 3.984908,-1.31913 5.615304,-0.43272 7.931761,4.31229 2.331479,4.77578 4.970819,14.72895 4.676224,17.63441 -0.04461,0.43996 0.275839,0.41439 2.156629,-0.17206 1.5875,-0.49499 1.5875,-0.49499 1.783125,-2.03412 0.413645,-3.25449 1.386978,-5.22635 2.922712,-5.92108 2.496532,-1.12937 40.010624,-13.26153 40.571202,-13.12084 0.74752,0.18762 2.574505,2.26211 3.337248,3.78936 0.325721,0.65219 0.719857,1.23478 0.875863,1.29464 0.222007,0.0852 5.826762,-1.77032 8.083982,-2.67629 0.36258,-0.14552 0.447,-0.9652 0.5816,-5.64695 0.29328,-10.20155 2.2626,-14.60547 8.72476,-19.51088 6.58615,-4.99953 13.90052,-7.60463 16.93942,-6.03318 7.37829,3.81539 12.31326,22.48692 10.1291,38.32359 -1.36146,9.8715 -2.67344,13.53201 -6.2382,17.40508 -4.36745,4.74517 -7.74426,6.25395 -13.68548,6.11478 -3.10018,-0.0726 -4.37947,-0.51334 -6.16814,-2.12494 -2.39779,-2.16042 -5.9993,-9.00962 -7.43702,-14.14341 -0.99175,-3.5413 -0.96272,-3.49445 -1.96396,-3.17087 -0.42738,0.13812 -1.82506,0.56212 -3.10597,0.94223 -2.328923,0.69111 -2.328923,0.69111 -2.149967,2.81133 0.222496,2.63609 -0.272124,4.03269 -1.576718,4.45198 -0.452956,0.14558 -4.812151,1.15525 -9.687099,2.24373 -4.874948,1.08847 -12.078229,2.70823 -16.007292,3.59948 -10.730719,2.4341 -11.546945,2.60798 -14.896287,3.17338 -5.069075,0.85572 -5.598829,0.79244 -7.026217,-0.83928 -1.193747,-1.36463 -1.193747,-1.36463 -3.289606,-0.76786 -2.09586,0.59677 -2.09586,0.59677 -2.277724,4.04168 -0.338984,6.42105 -1.533724,11.44793 -3.355959,14.12024 -0.980144,1.43737 -2.887734,2.27397 -7.155156,3.13798 -3.538596,0.71645 -3.83468,0.74021 -5.197533,0.41703 z m 4.304733,-1.07749 c 2.152026,-0.46176 2.228435,-0.49749 0.79375,-0.37118 -1.79901,0.15839 -4.847092,0.84875 -3.836458,0.86893 0.363802,0.007 1.733021,-0.21673 3.042708,-0.49775 z m -2.335289,-0.51584 c 0.702326,-0.14583 1.782911,-0.35418 2.4013,-0.46302 1.124344,-0.19787 1.124344,-0.19787 0.396875,-1.03019 -0.727469,-0.83231 -0.727469,-0.83231 -3.582,-0.13229 -2.854534,0.70002 -2.854534,0.70002 -2.256309,1.29534 0.665999,0.66275 1.173118,0.71783 3.040134,0.33016 z m 5.642581,-0.79318 c -0.363802,-0.28457 -0.747128,-0.52005 -0.851834,-0.52329 -0.256143,-0.008 -2.647,-3.60777 -3.166935,-4.76838 -5.139185,-11.47178 -6.448963,-30.43952 -2.79535,-40.48125 0.291209,-0.80037 0.633828,-1.56832 0.761376,-1.70657 0.12755,-0.13824 0.23191,-0.36266 0.23191,-0.4987 0,-0.41415 -1.046967,1.0551 -1.4653,2.05631 -2.845602,6.81049 -2.947227,21.32233 -0.228944,32.69271 1.748428,7.31353 5.30475,13.77442 7.569888,13.75245 0.606647,-0.006 0.606647,-0.006 -0.05481,-0.52328 z m 2.913266,-0.66294 c 1.416825,-0.73266 2.672824,-3.62012 3.573052,-8.21419 0.529167,-2.70046 0.850575,-9.37913 0.451366,-9.37913 -0.624133,0 -1.033364,0.80621 -1.080145,2.12792 -0.0645,1.82224 -0.738018,6.74758 -1.088144,7.95737 -0.869945,3.00595 -2.526721,3.63841 -4.649242,1.77481 -5.094558,-4.47308 -7.318383,-28.62943 -3.090347,-33.56893 0.921401,-1.07645 0.921401,-1.07645 0.322294,-4.69891 -0.674978,-4.08123 -0.763018,-4.27234 -1.688711,-3.66581 -1.440103,0.94359 -2.643412,4.58101 -3.45282,10.43734 -1.258046,9.10235 0.687287,23.96477 4.120779,31.48294 0.417031,0.91316 0.758235,1.72767 0.758235,1.81003 0,0.0824 0.49253,0.85191 1.094513,1.71009 1.712013,2.44065 3.074537,3.08212 4.72917,2.22647 z m -14.266012,-0.80498 c -1.724239,-1.9638 -4.618978,-8.77502 -5.841831,-13.74563 -3.044954,-12.37701 -2.06068,-23.30301 2.597617,-28.83502 0.419851,-0.4986 0.41769,-0.50591 -0.0436,-0.14751 -1.419869,1.10318 -3.672102,5.45814 -4.405106,8.51779 -1.97049,8.22506 0.120683,20.87289 5.067823,30.6512 0.876965,1.73337 2.911512,4.49792 3.31021,4.49792 0.07651,0 -0.231789,-0.42244 -0.685116,-0.93875 z m 5.267329,-0.0479 c 2.190954,-0.52118 2.19791,-0.52986 1.442514,-1.80003 -0.634534,-1.06694 -0.634534,-1.06694 -3.882795,-0.70522 -1.786543,0.19894 -3.293877,0.40718 -3.349631,0.46275 -0.05575,0.0556 0.359942,0.70595 0.92377,1.44529 1.153733,1.51288 1.063418,1.50179 4.866142,0.59721 z m -1.360937,-3.25677 c 0.924976,-0.12238 1.724456,-0.26519 1.776627,-0.31736 0.05217,-0.0522 -0.386501,-1.45834 -0.974823,-3.12483 -1.048425,-2.96977 -2.450677,-8.88365 -2.768267,-11.67494 -0.08818,-0.77506 -0.256612,-2.12357 -0.374281,-2.99669 -0.974981,-7.23455 0.111996,-19.49183 2.081558,-23.47267 0.695384,-1.40549 0.69337,-1.40654 -1.463385,-0.76252 -5.721012,1.70835 -9.382791,9.72529 -9.011965,19.73043 0.278882,7.52444 1.616526,13.26806 4.887054,20.98421 1.033657,2.43871 0.627028,2.32506 5.847482,1.63437 z m 10.800651,-2.07151 c 0.316897,-0.46762 0.703303,-1.41094 0.858679,-2.09627 0.323543,-1.42704 1.137645,-8.55132 0.99363,-8.69534 -0.05252,-0.0525 -0.798738,0.11861 -1.658266,0.38029 -1.562774,0.47578 -1.562774,0.47578 -1.764982,1.78802 -0.572011,3.71208 -0.734962,4.43163 -1.346457,5.94553 -0.781698,1.93529 -0.725096,2.17529 0.716823,3.03941 1.294796,0.77595 1.446561,0.75101 2.200573,-0.36164 z m -3.311112,-2.84915 c 0.875345,-1.97886 1.626997,-6.97546 1.049335,-6.97546 -0.126717,0 -0.31456,0.85415 -0.41743,1.89811 -0.205351,2.084 -0.758786,3.78234 -1.48417,4.55454 -0.376872,0.40119 -0.413184,0.62253 -0.184483,1.12448 0.379671,0.83328 0.409712,0.81585 1.036748,-0.60167 z m -0.561276,-2.04866 c 0.264154,-0.59969 0.565563,-1.85096 0.669798,-2.78062 0.189516,-1.69028 0.189516,-1.69028 -0.766908,-1.51085 -0.915678,0.17178 -0.974648,0.13671 -1.384221,-0.82326 -0.670867,-1.5724 -0.401267,-4.42025 0.611981,-6.46455 0.809154,-1.63253 0.809154,-1.63253 0.155726,-3.64158 -0.735877,-2.26256 -1.581457,-3.83484 -2.54771,-4.73724 -0.654783,-0.6115 -0.654783,-0.6115 -0.77819,1.19063 -0.316105,4.61622 1.185239,15.10357 2.845504,19.87672 0.186497,0.53616 0.665078,0.0916 1.19402,-1.10925 z m 82.462804,-5.11714 c -4.27632,-1.42553 -9.73223,-11.59732 -11.41059,-21.27344 -0.80716,-4.65348 -1.01675,-8.11608 -0.8676,-14.33362 0.16156,-6.73518 0.46493,-8.71107 1.76513,-11.49687 1.04401,-2.2369 0.76773,-2.10254 -0.3855,0.18746 -3.96298,7.86943 -3.16086,25.19651 1.69691,36.65577 3.07426,7.25205 6.1516,10.64808 9.67464,10.67656 0.67783,0.005 0.60875,-0.0553 -0.47299,-0.41586 z m -82.01079,-0.35543 c 0.797967,-0.27818 0.805151,-0.29757 0.668464,-1.80496 -0.140216,-1.54634 0.437182,-4.25569 1.071076,-5.02587 0.249722,-0.3034 0.144851,-0.33253 -0.620321,-0.17226 -1.901121,0.3982 -3.284487,4.23347 -2.382607,6.6056 0.29836,0.78475 0.221689,0.76063 1.263388,0.39749 z m 87.21725,-1.87546 c 1.83498,-0.77099 3.33099,-1.46435 3.32447,-1.5408 -0.007,-0.0764 -0.51254,-0.69249 -1.12448,-1.36897 l -1.11262,-1.22997 -3.95179,1.82901 c -2.52909,1.17054 -4.04338,1.73742 -4.20619,1.57461 -0.16282,-0.16281 0.25972,-0.48686 1.17366,-0.90007 3.54486,-1.60274 6.58744,-3.07996 6.58744,-3.19831 0,-0.0711 -0.33504,-0.7001 -0.74454,-1.39773 -7.78206,-13.25765 -8.07473,-39.76401 -0.54934,-49.75331 0.57554,-0.76398 0.99943,-1.38906 0.94197,-1.38906 -0.64708,0 -4.42429,1.92624 -6.57192,3.35145 -8.14167,5.40294 -10.29917,10.14277 -10.33223,22.69895 -0.028,10.63714 2.00191,19.43466 6.17817,26.77578 1.95325,3.43349 5.42501,6.55155 6.74938,6.06178 0.16593,-0.0614 1.80304,-0.74238 3.63802,-1.51336 z m 2.8507,0.81431 c 3.61072,-1.33134 3.38391,-1.17914 2.29347,-1.53902 -0.89865,-0.29658 -1.15339,-0.23625 -3.83264,0.90773 -1.5785,0.67398 -2.91961,1.27471 -2.98024,1.33495 -0.45878,0.45576 2.71517,-0.0384 4.51941,-0.70366 z m -83.710478,-0.89745 c 0.04053,-0.0376 0.110148,-1.12659 0.154715,-2.42001 0.04775,-1.3858 0.253164,-2.75131 0.500136,-3.32472 0.419106,-0.97307 0.419106,-0.97307 -0.816176,-0.58412 -0.679402,0.21392 -1.617128,0.45819 -2.083832,0.54282 -1.11647,0.20246 -1.508101,0.68214 -2.17143,2.65966 -0.603985,1.8006 -0.686234,2.8617 -0.300468,3.87634 0.251423,0.66129 0.251423,0.66129 2.447395,-0.0102 1.207786,-0.36931 2.229131,-0.70222 2.26966,-0.7398 z m 9.594402,0.48848 c -0.818853,-0.68902 -1.598297,-1.90882 -1.598297,-2.50128 0,-0.22855 0.104394,-0.22348 0.396875,0.0193 0.218281,0.18116 0.396875,0.47954 0.396875,0.66307 0,0.36057 1.948627,2.22609 2.382012,2.28042 0.145102,0.0182 0.412649,0.0531 0.59455,0.0775 0.181901,0.0245 0.747448,-0.0498 1.256771,-0.16502 0.509323,-0.11522 1.34276,-0.27611 1.852083,-0.35754 0.509323,-0.0814 1.13338,-0.20835 1.386792,-0.28204 0.253416,-0.0737 0.729666,-0.18433 1.058334,-0.24587 0.535347,-0.10024 8.479591,-1.83969 9.461124,-2.07158 0.218281,-0.0516 0.873125,-0.18812 1.455208,-0.30344 0.582083,-0.11532 1.177396,-0.23668 1.322917,-0.26968 0.145521,-0.033 1.514739,-0.32016 3.042708,-0.63811 1.527969,-0.31796 2.956719,-0.64693 3.175,-0.73104 0.218281,-0.0841 0.637032,-0.1747 0.930555,-0.2013 0.293524,-0.0266 0.888836,-0.14637 1.322917,-0.26617 0.434081,-0.1198 0.96783,-0.25182 1.186111,-0.29338 0.639964,-0.12184 2.226284,-0.4503 2.513542,-0.52045 0.338275,-0.0826 1.63059,-0.341 2.623566,-0.52455 0.424317,-0.0784 0.899393,-0.22167 1.055724,-0.31829 0.156332,-0.0966 0.702133,-0.2096 1.212893,-0.25108 0.510757,-0.0415 1.107244,-0.15264 1.325525,-0.24703 0.218281,-0.0944 0.813594,-0.21345 1.322917,-0.26458 0.509323,-0.0511 1.104635,-0.17288 1.322916,-0.27055 0.218282,-0.0977 0.605235,-0.20275 0.859896,-0.23351 0.254662,-0.0308 0.552318,-0.0845 0.661458,-0.11951 0.220938,-0.0708 0.615456,-0.16563 0.943756,-0.22684 0.172006,-0.0321 -1.343895,-2.12506 -1.9455,-2.68613 -0.249923,-0.23309 -2.104239,-4.45805 -2.762485,-6.29419 -1.210265,-3.37594 -1.747174,-5.7551 -1.90836,-8.45634 -0.08901,-1.49158 -0.183251,-2.71198 -0.209434,-2.71198 -0.272597,0 -37.817469,12.47535 -38.263874,12.71426 -0.609664,0.32628 -1.563235,2.68615 -1.86272,4.6098 -0.77212,4.95949 1.382184,11.78011 3.720764,11.78011 0.551519,0 0.536155,-0.0457 -0.233119,-0.69297 z m 34.173368,-25.28911 c -0.741627,-0.74162 -0.02016,-1.99238 0.968278,-1.67866 0.713282,0.22639 0.864761,0.77173 0.399052,1.43662 -0.441259,0.62999 -0.898453,0.71092 -1.36733,0.24204 z m 0.736783,-0.82259 c -0.0024,-0.18934 -0.106423,-0.15671 -0.260533,0.0818 -0.215881,0.33405 -0.257122,0.3187 -0.260532,-0.097 -0.003,-0.36445 0.134723,-0.45759 0.525481,-0.35541 0.291243,0.0762 0.462809,0.0305 0.381259,-0.10143 -0.405177,-0.65559 -1.351378,-0.0219 -1.068398,0.71557 0.169619,0.44202 0.689152,0.25673 0.682723,-0.24349 z M 44.39062,262.0985 c 0.866659,-0.31421 0.866659,-0.31421 0.9437,-2.69185 0.05148,-1.58882 0.224798,-2.65856 0.522404,-3.2244 0.593855,-1.12908 0.600287,-1.12067 -0.620606,-0.81078 -1.673852,0.42487 -2.902781,2.64998 -2.902781,5.2558 0,1.86769 0.324228,2.09956 2.057283,1.47123 z m 2.811973,-0.92713 c 0.07589,-0.1228 0.03389,-0.62882 -0.09334,-1.12448 -0.127232,-0.49567 -0.31519,-1.49653 -0.417681,-2.22413 -0.293323,-2.08232 -0.81003,-0.0545 -0.691047,2.71198 0.03601,0.8373 0.821087,1.25308 1.202073,0.63663 z m 83.022097,-0.41289 c 1.98752,-0.87897 3.89264,-3.01677 4.94835,-5.55271 1.10636,-2.65759 1.03919,-3.11784 -0.11697,-0.80149 -2.08047,4.16816 -4.8617,5.59656 -7.54182,3.87335 -11.47018,-7.37486 -12.26747,-51.7316 -0.93393,-51.95909 6.85152,-0.13752 12.62316,18.83839 11.1238,36.57264 -0.10377,1.22737 -0.12601,2.17205 -0.0494,2.09929 0.0766,-0.0728 0.22338,-1.02526 0.32623,-2.11667 0.10285,-1.09141 0.23761,-2.06804 0.29946,-2.17029 0.23957,-0.39607 0.1139,-10.78684 -0.15776,-13.04325 -1.83996,-15.28299 -8.79332,-25.83268 -14.1964,-21.53885 -7.04704,5.60029 -8.85165,28.14169 -3.5248,44.02843 0.43914,1.30969 1.37624,3.51235 2.08244,4.89479 1.23312,2.41393 1.3166,2.51088 2.10632,2.44639 0.94363,-0.0771 1.08597,0.26552 0.26291,0.63278 -0.85049,0.3795 1.57792,2.87543 2.55826,2.62938 0.47358,-0.11885 0.64698,-0.0547 0.64698,0.23954 0,0.55799 0.49635,0.50432 2.16636,-0.23424 z m 1.5148,-3.64754 c 7.73863,-6.22036 6.23275,-39.12474 -2.19846,-48.03766 -1.4373,-1.51942 -0.89016,-1.69767 -5.94682,1.9374 -0.62766,0.45121 -0.62766,0.45121 0.1854,0.79307 8.76373,3.68488 13.0468,37.90125 5.62599,44.94466 -1.40788,1.33627 0.71267,1.66567 2.33389,0.36253 z m -96.020736,-0.0646 c 0,-2.45876 -2.423044,-8.58873 -3.767043,-9.5301 -0.818634,-0.5734 -0.906584,-0.53009 -1.07882,0.53128 -0.13608,0.83856 -0.03676,1.05619 0.917552,2.0105 1.185418,1.18542 2.432629,3.62116 2.933176,5.72835 0.180289,0.75898 0.476361,1.37496 0.660873,1.37496 0.183843,0 0.334262,-0.0517 0.334262,-0.11499 z m 3.241968,-0.91851 c 0.747456,-0.28418 0.798161,0.2536 -0.485426,-5.14827 -2.063429,-8.68378 -5.022696,-11.41861 -6.766914,-6.2537 -0.552032,1.63466 -0.553394,1.67848 -0.06288,2.02295 2.146435,1.50736 3.406412,4.16209 4.457896,9.39264 0.148852,0.74046 0.88315,0.73696 2.857322,-0.0136 z m 89.857548,0.0953 c 3.84996,-3.23953 4.85061,-16.73802 2.14679,-28.95973 -1.86114,-8.41266 -5.65711,-15.08125 -8.58473,-15.08125 -0.70864,0 -0.4406,0.71581 0.39814,1.06322 1.26192,0.52271 3.32168,3.05575 4.61336,5.67341 5.70357,11.55855 6.0004,31.82018 0.53644,36.61759 -1.48368,1.30269 -0.62732,1.9635 0.89,0.68676 z m -87.093549,-1.08849 c 0.09269,-0.24154 -0.03698,-1.72809 -0.28816,-3.30345 -1.528813,-9.58841 -5.066943,-17.91049 -7.918971,-18.62631 -1.053301,-0.26436 -1.076325,-0.16035 -0.599456,2.70807 0.842751,5.06922 0.913267,5.30715 1.625936,5.48602 1.673622,0.42005 3.972086,5.4903 5.149379,11.35917 0.287771,1.43455 0.523221,2.65494 0.523221,2.71198 0,0.3352 1.36742,0.031 1.508051,-0.33548 z m 85.465599,-0.20039 c 5.17941,-4.35819 4.93252,-24.15275 -0.43919,-35.21147 -1.66389,-3.42545 -3.9028,-5.95313 -5.27303,-5.95313 -0.41995,0 -1.39785,4.83184 -1.77856,8.78794 -0.16633,1.72851 -0.15012,1.79401 0.60038,2.42551 4.1776,3.51522 6.37436,19.01334 3.52568,24.87363 -0.54552,1.12223 -0.31192,1.86039 1.49403,4.7212 0.74033,1.17276 0.87086,1.19762 1.87069,0.35632 z M 96.861294,253.6643 c 0.365233,-0.88175 0.386876,-3.87106 0.03061,-4.22733 -0.111443,-0.11144 -0.654217,-0.0779 -1.206164,0.0745 -2.917053,0.80543 -5.358472,-4.49344 -4.145611,-8.99767 0.243059,-0.90265 0.432498,-1.1252 1.065535,-1.25181 0.769917,-0.15398 0.769917,-0.15398 0.143137,-1.37992 -0.948991,-1.85615 -2.481032,-3.51885 -3.153891,-3.42286 -1.803771,0.25733 -0.128929,9.27217 2.816812,15.16152 2.190329,4.37907 3.730765,5.77896 4.449575,4.0436 z m 39.641056,-2.4561 c -0.0146,-0.52917 -0.0146,-0.52917 -0.24193,0 -0.33991,0.791 -0.33991,1.452 0,0.92604 0.14106,-0.21828 0.24993,-0.635 0.24193,-0.92604 z m -12.21844,-7.98509 c 0.28703,-6.59409 -1.77669,-15.25527 -4.14576,-17.39924 -0.92031,-0.83288 -0.75162,7.82688 0.26256,13.47807 0.68713,3.82882 2.06,9.21279 2.55233,10.00938 0.41335,0.66882 1.19174,-2.89201 1.33087,-6.08821 z m -27.914273,5.02404 c 0.722762,-0.14587 0.722762,-0.14587 0.229417,-0.84137 -1.535615,-2.16485 -2.296996,-4.56828 -2.073978,-6.54687 0.142867,-1.26752 0.249115,-1.20851 -1.360234,-0.75539 -0.890762,0.25081 -1.161846,4.09696 -0.414972,5.88765 0.542369,1.30037 1.966124,2.76239 2.491816,2.55878 0.222856,-0.0863 0.730433,-0.22258 1.127951,-0.3028 z m 3.355028,-1.06016 c 0.813155,-0.24713 1.511395,-0.46858 1.551655,-0.49211 0.0403,-0.0235 -0.34481,-0.66392 -0.85568,-1.42308 -1.12817,-1.67645 -1.731054,-3.59803 -1.731054,-5.51739 0,-1.59495 -0.106551,-1.62926 -2.262471,-0.72845 -1.619311,0.67659 -1.358043,4.62845 0.486127,7.35308 0.971751,1.43569 0.855681,1.40233 2.811423,0.80795 z m 4.193815,-1.25178 c 0.0594,-0.0595 -0.0744,-1.21908 -0.29741,-2.57694 -0.22303,-1.35785 -0.48534,-3.39156 -0.58292,-4.51935 -0.0976,-1.12778 -0.21235,-2.05052 -0.25506,-2.05052 -0.0427,0 -0.738,0.2527 -1.54506,0.56154 -1.410871,0.53991 -1.474032,0.6058 -1.639683,1.71043 -0.439359,2.92986 1.738933,7.47756 3.420563,7.14123 0.43531,-0.0871 0.84011,-0.20694 0.89957,-0.26639 z m 22.936,-38.2968 c 0.13987,-0.12173 -0.14428,-0.21876 -0.64067,-0.21876 -0.88013,0 -3.18256,1.92717 -3.18256,2.66385 0,0.22208 2.86091,-1.60757 3.82323,-2.44509 z m -54.406295,27.96044 c -0.248619,-0.54566 -0.217528,-0.7525 0.178969,-1.19062 0.821997,-0.9083 1.985349,-0.52133 1.985349,0.66038 0,1.27128 -1.643251,1.67386 -2.164318,0.53024 z m 1.767443,-0.53024 c 0,-0.66063 -0.106098,-0.79375 -0.632622,-0.79375 -0.846941,0 -1.311134,0.73425 -0.830397,1.31351 0.595603,0.71766 1.463019,0.40949 1.463019,-0.51976 z m 5.159166,-3.44013 c -0.397386,-1.0452 0.07116,-1.71924 1.195101,-1.71924 1.689042,0 1.598817,2.16312 -0.09727,2.33188 -0.693227,0.069 -0.877858,-0.0341 -1.097835,-0.61264 z m 1.852292,-0.53692 c 0,-0.81949 -0.687197,-1.13769 -1.247323,-0.57756 -0.560123,0.56012 -0.241924,1.24732 0.577562,1.24732 0.540237,0 0.669761,-0.12952 0.669761,-0.66976 z M 70.379169,226.9988 c -1.097549,-1.09755 -0.273518,-2.91042 1.322917,-2.91042 0.967195,0 1.852083,0.82168 1.852083,1.71979 0,0.89811 -0.884888,1.7198 -1.852083,1.7198 -0.440973,0 -1.028935,-0.23519 -1.322917,-0.52917 z m 2.16198,-0.1733 c 0.960741,-0.86946 0.452091,-2.20795 -0.839063,-2.20795 -1.270603,0 -1.7599,1.19526 -0.885034,2.16198 0.543343,0.60039 1.095214,0.6151 1.724097,0.046 z m 1.465892,-11.73618 c -1.74756,-1.37463 -0.684443,-4.49469 1.531503,-4.49469 0.803349,0 1.910871,0.77129 2.236552,1.55755 0.687372,1.65946 -0.479451,3.46953 -2.236552,3.46953 -0.470074,0 -1.15925,-0.23957 -1.531503,-0.53239 z m 2.903513,-0.57206 c 0.865685,-0.81327 0.826503,-2.12828 -0.08478,-2.84509 -1.989404,-1.56487 -4.423243,0.96979 -2.696323,2.80801 0.737335,0.78486 1.967663,0.80126 2.781098,0.0371 z"
         id="path38"
         inkscape:connector-curvature="0" />
      <path
         style="fill:#333333;fill-opacity:1;stroke-width:0.26458335"
         d="m 27.18243,284.20394 c -6.439653,-3.06987 -8.668034,-10.74537 -10.55546,-17.06359 -2.369067,-9.41797 -3.814415,-20.59547 2.530981,-28.82934 3.103901,-4.20516 8.777719,-4.6414 13.376783,-6.15612 5.000853,0.67687 6.222627,6.79987 7.797024,10.77356 1.922477,3.40285 0.940256,10.16173 3.370101,11.95882 5.161114,-0.55128 2.029914,-9.36957 8.357748,-9.15098 12.587307,-4.196 25.168938,-8.41825 37.829363,-12.38749 3.180884,2.7185 4.652417,7.27988 9.39391,3.672 1.54114,-0.74337 4.27501,-0.61078 3.56607,-3.00663 0.13547,-7.59626 0.30797,-16.44387 6.80132,-21.61689 5.01387,-4.10375 10.99327,-8.15148 17.70892,-8.10445 5.64265,1.82871 7.815,8.27162 9.52581,13.42857 3.32901,11.83918 3.11964,24.69428 -0.45654,36.44454 -2.7951,6.57312 -9.15795,12.87052 -16.79899,12.37526 -6.81991,0.89029 -10.26461,-6.00331 -12.50613,-11.23411 -2.13029,-3.04384 -1.05054,-10.98766 -6.63653,-7.38289 -4.648672,0.88597 -0.464,9.14489 -7.258725,8.1322 -13.315896,2.84343 -26.502451,6.35728 -39.93291,8.6227 -3.82559,1.41439 -6.5805,-5.09916 -9.87016,-0.70973 -0.385227,5.86356 -0.356109,12.43125 -3.946533,17.37522 -3.29946,2.35643 -8.324385,3.62793 -12.296052,2.85935 z m 4.47634,-0.75783 c 7.202928,-1.8269 -9.125964,1.11906 -0.846799,0.14683 l 0.846799,-0.14639 z m -0.9671,-0.79232 c 6.32102,-1.23803 -4.516814,-3.18215 -4.204393,-0.19397 1.089539,1.19265 2.870246,0.30342 4.204393,0.19397 z m 4.630209,-0.51928 c -5.610448,-4.79553 -6.69411,-12.74968 -8.07624,-19.60121 -1.37074,-8.90522 -1.487668,-18.32296 1.438659,-26.93338 1.692708,-4.12896 -2.78803,3.56875 -2.193954,5.2976 -1.476264,12.48547 -1.116399,25.84841 4.642965,37.2887 0.482588,1.33534 3.752378,5.70065 4.18857,3.94829 z m 3.530785,-1.3842 c 3.225224,-4.80501 3.631018,-11.05593 3.428348,-16.69849 -3.141765,1.81333 -0.181862,9.73248 -4.052352,12.49271 -5.271154,-0.21871 -5.960555,-7.19963 -6.977506,-11.3168 -1.330728,-7.43092 -2.356493,-15.50907 0.623709,-22.67294 2.679234,-1.85438 0.04744,-13.02312 -2.47378,-6.80963 -3.085866,7.87151 -2.393442,16.60239 -1.769477,24.85572 1.248339,7.07715 2.158081,15.09859 7.474367,20.39951 1.110459,0.93808 2.783542,0.87072 3.746691,-0.25008 z M 23.637671,280.2462 c -5.841775,-9.63311 -8.315793,-21.37437 -7.010929,-32.55987 0.02291,-3.30166 3.398085,-8.47404 3.890553,-9.97873 -6.900502,8.31041 -5.634175,20.07658 -3.071286,29.79841 1.489303,4.98437 3.440853,10.17832 7.048694,13.99696 l -0.207179,-0.36918 -0.649851,-0.88759 z m 4.760959,0.45275 c 5.386529,-0.0472 0.517997,-4.99141 -2.459672,-2.6288 -5.703832,-0.49805 0.08488,4.74626 2.459672,2.6288 z m -1.743723,-3.26369 c 5.697887,-0.2278 -0.618995,-7.58568 -0.13322,-11.42033 -1.661322,-9.81368 -2.511086,-20.27176 0.792689,-29.83347 2.307772,-4.20846 -6.184979,0.32372 -6.367196,2.70827 -5.243667,7.50228 -4.455864,17.17648 -2.733685,25.68184 1.840683,4.14629 1.618301,13.08888 7.141119,13.02506 l 0.605836,-0.0746 z m 11.630421,-1.81927 c 1.56141,-3.11781 2.712889,-8.53994 1.500223,-11.20075 -4.736196,0.6181 -2.843225,7.11074 -4.59135,10.24088 0.774346,0.55099 2.180676,2.34061 3.091127,0.95987 z m -2.586595,-4.56153 c 1.043161,-2.50055 0.745055,-8.38009 -0.03286,-2.67064 -1.199638,2.0809 -2.0836,7.36704 0.03286,2.67064 z m -0.653037,-1.84406 c 2.331597,-4.36641 -3.215581,-2.32519 -2.192593,-6.67767 1.685492,-4.10343 2.163027,-9.81839 -1.936457,-12.42958 -1.049807,7.15638 0.682532,14.44201 2.563185,21.328 0.733445,0.78105 1.401974,-1.75331 1.565865,-2.22075 z m 82.883724,-3.87125 c -5.77218,-2.19501 -8.10694,-8.71961 -10.25421,-14.01108 -3.23521,-9.1436 -3.07623,-19.01017 -2.43047,-28.55491 0.0707,-2.21324 3.37175,-9.05721 0.56668,-3.65074 -2.96802,7.31668 -1.99184,15.50331 -1.36339,23.17308 1.19036,7.84627 3.61624,16.16303 9.4124,21.85812 0.43278,1.11858 6.09783,1.93988 4.06899,1.18553 z m -82.738836,-0.53649 c 1.184332,-1.04451 1.120651,-6.37875 0.980194,-6.97233 -2.204842,0.24081 -4.354852,8.08549 -0.980194,6.97233 z m 90.618796,-1.24055 c 5.94783,-2.12816 -2.81961,-1.31128 -4.41186,0.4701 -3.54034,1.6344 4.34763,-0.15638 4.41186,-0.4701 z m -3.70417,-0.46786 c 3.88476,-0.0569 3.78852,-3.80868 0.77626,-4.07958 -1.8764,0.80794 -7.48001,3.75161 -6.38052,2.46779 3.33373,-1.76206 8.80612,-2.98166 4.57445,-7.26263 -5.27284,-12.39344 -6.22967,-26.6693 -2.85829,-39.69444 0.43099,-3.08479 3.40381,-6.83388 3.98318,-8.81923 -7.68588,2.98973 -15.32836,9.21635 -16.048,17.98255 -1.30903,12.5767 0.0693,26.18297 7.16202,36.96372 2.18675,3.28769 5.24195,4.96048 8.7909,2.44182 z m -82.195938,0.29827 c 2.34438,-0.42683 2.641744,-6.93063 1.764527,-7.0257 -4.663664,-1.39901 -8.158118,10.66704 -1.764527,7.0257 z m 11.467743,0.22835 c -2.164208,-2.05639 -2.160398,-3.99588 -0.252867,-0.92287 3.819257,2.76523 8.679436,-0.77662 12.91935,-0.95417 10.20509,-2.26681 20.496022,-4.30329 30.629601,-6.68852 -4.215196,-5.62775 -6.799647,-12.78112 -6.912018,-19.89642 -4.258489,0.73372 -8.646725,2.76315 -12.946234,3.97832 -8.476244,2.93494 -17.162785,5.37706 -25.491611,8.66825 -2.771931,4.487 -2.404724,10.83127 0.300778,15.27307 -0.186867,0.63586 3.351537,1.55705 1.753001,0.54234 z m 33.969488,-25.66129 c -1.364825,-3.55271 3.466358,0.40519 0,0 z m 1.172249,-0.42137 c -1.99251,0.1266 0.618373,-1.84163 -1.248162,-0.2098 0.08641,0.58978 1.008954,0.95961 1.248162,0.2098 z m -42.11771,24.55678 c 1.44931,-1.26916 1.340651,-5.82957 1.374808,-6.85107 -3.002787,-0.5102 -5.516653,8.46977 -1.374808,6.85107 z m 2.858781,-1.29567 c -0.123845,-1.84715 -1.03563,-6.20923 -1.308788,-1.69545 -0.496583,1.02873 0.686157,3.61474 1.308788,1.69545 z m 83.064097,-0.0429 c 6.51659,-3.78208 6.64043,-12.14012 7.87882,-18.7078 0.80191,-11.15838 0.083,-23.16451 -6.0551,-32.85275 -2.97767,-6.71383 -10.7702,-3.59399 -11.91737,2.43978 -3.82274,9.83765 -3.44656,20.76871 -1.80232,31.02079 0.8908,5.1063 2.58232,10.13807 5.29059,14.57059 2.28727,-0.12783 0.02,2.7321 3.33046,3.57081 1.37343,0.0348 1.60276,1.24201 3.27492,-0.0414 z m -2.13329,-2.09975 c -6.57236,-4.81855 -7.93648,-13.62282 -9.17352,-21.14567 -0.90359,-9.07302 -1.19312,-18.74724 2.65686,-27.2164 2.18199,-6.1977 9.7096,-3.79505 11.19876,1.57472 5.19685,10.52959 5.37004,22.68802 4.45393,34.15452 -0.87487,4.74206 -1.9662,10.84603 -6.855,13.01238 -0.77228,0.18281 -1.60374,0.023 -2.28103,-0.37955 z m 3.23818,-1.26987 c 4.72387,-4.12253 4.79998,-11.09958 5.30248,-16.9037 0.10638,-10.16997 -0.63387,-21.05385 -6.00535,-29.9629 -0.79038,-5.31658 -10.85506,0.66788 -5.2978,2.48609 5.35288,6.11748 6.48148,14.69814 7.46529,22.47935 0.36362,6.9384 0.99184,14.77267 -3.08224,20.80969 -2.53525,1.81863 0.0928,2.11299 1.61762,1.09147 z m -1.61587,-2.21793 c 3.49661,-6.94504 2.82416,-15.08046 2.16393,-22.58156 -1.10692,-7.15222 -2.69261,-15.12669 -8.42216,-20.07374 -4.10926,-0.69108 3.4233,3.37704 3.469,5.65817 5.01769,10.37329 6.3251,22.77715 2.99763,33.8568 -0.9002,2.20241 -5.06467,7.37453 -0.2084,3.14033 z m -2.62262,-0.23468 c 4.21392,-4.8466 3.76803,-11.92646 3.62796,-17.97814 -0.75951,-7.76683 -1.95249,-16.34631 -7.54903,-22.22761 -3.92317,-2.5119 -2.90987,6.47016 -3.63133,9.00965 3.315,4.24276 4.95833,9.668 5.34137,15.07084 1.62562,4.88576 -2.34949,9.89965 -0.55455,14.25925 0.57132,0.94083 1.38147,3.46793 2.76558,1.86601 z m -3.654,-6.30574 c 1.80985,-7.35084 0.78081,-15.49643 -2.82558,-22.13948 -2.4071,-2.23936 -0.64886,5.39438 -0.9945,7.07826 0.31181,5.44258 1.52896,10.79237 3.13825,15.98229 l 0.21051,-0.10911 z M 127,207.51888 c -3.13477,-0.60135 -5.28706,4.66713 -1.21388,0.93061 l 0.63097,-0.45751 L 127,207.51893 Z m -91.281246,49.38808 c -0.367725,-2.67817 -2.35254,-10.48433 -4.845863,-8.85947 1.291943,2.50558 3.804379,7.23954 4.845863,8.85947 z m 3.289673,-0.79729 c 0.806007,-3.95969 -1.668374,-9.42615 -3.756398,-13.27063 -3.263971,-2.65562 -5.585125,4.60936 -1.810144,5.66181 2.791527,1.93113 0.688087,10.61062 5.566542,7.60882 z m 2.602507,-2.54488 c -0.843528,-6.45867 -2.344212,-13.20794 -6.003078,-18.69065 -4.706414,-5.4563 -2.965504,4.90332 -0.922888,6.6452 3.926741,3.48784 4.2901,9.29208 5.628895,14.09414 1.328009,0.37631 1.530723,-1.08354 1.297071,-2.04869 z m 55.377254,0.0214 c 2.371085,-5.60591 -4.774569,-2.66155 -5.205246,-7.52584 -2.51814,-4.79181 4.03831,-7.56076 -1.064197,-11.13549 -3.992004,-0.90792 -0.876055,7.4375 -0.277099,9.86272 1.208796,2.06329 3.338544,11.3332 6.546542,8.79861 z M 96.24967,248.3399 c 0.431039,-1.91385 -2.41625,-5.6274 -1.812494,-8.64112 -4.316734,0.37977 -1.966681,9.9608 1.812494,8.64112 z m 2.826477,-0.96428 c 4.673543,-0.63339 -2.067886,-5.76975 -0.57673,-8.97518 -5.522245,-0.88451 -3.049017,9.52954 0.57673,8.97518 z m 4.334253,-1.23542 c 0.20826,-2.31768 1.03257,-12.14886 -3.61697,-8.07297 -0.753528,2.64176 0.30068,8.07211 3.61697,8.07297 z M 72.448185,235.5988 c 0.964607,-5.40749 4.22212,2.77564 0,0 z m 1.767443,-0.53024 c -2.141587,-3.44408 -1.905058,3.48252 0,0 z m 5.536951,-2.97417 c -2.232651,-3.52395 4.637475,-1.57865 0.918651,0.13229 l -0.918654,-0.13229 z m 1.422675,-1.09453 c -2.40706,-3.17697 -1.187752,3.3699 0,0 z M 70.379169,226.9988 c -2.56967,-4.53643 6.276916,-2.5051 2.02034,0.38675 -0.675871,0.31209 -1.483253,0.0805 -2.02034,-0.38675 z m 2.16198,-0.1733 c 1.96291,-4.38724 -5.206506,-0.4868 -0.458293,0.31736 l 0.458293,-0.31733 z m 2.071354,-11.37936 c -5.553778,-3.61507 4.90898,-7.38875 3.103089,-1.27173 -0.522976,1.12844 -1.926893,1.78102 -3.103089,1.27173 z m 2.298051,-0.92888 c 3.040412,-4.26542 -5.978223,-3.93494 -2.631969,0.0995 0.745297,0.62894 1.938078,0.59594 2.631969,-0.0995 z"
         id="path36"
         inkscape:connector-curvature="0" />
    </g>
  </g>
</svg>
